<?xml version="1.0" encoding="utf-8" standalone="no"?>
<!DOCTYPE svg PUBLIC "-//W3C//DTD SVG 1.1//EN"
  "http://www.w3.org/Graphics/SVG/1.1/DTD/svg11.dtd">
<svg xmlns:xlink="http://www.w3.org/1999/xlink" width="1144.5675pt" height="444.244219pt" viewBox="0 0 1144.5675 444.244219" xmlns="http://www.w3.org/2000/svg" version="1.1">
 <metadata>
  <rdf:RDF xmlns:dc="http://purl.org/dc/elements/1.1/" xmlns:cc="http://creativecommons.org/ns#" xmlns:rdf="http://www.w3.org/1999/02/22-rdf-syntax-ns#">
   <cc:Work>
    <dc:type rdf:resource="http://purl.org/dc/dcmitype/StillImage"/>
    <dc:date>2026-02-04T18:06:44.738956</dc:date>
    <dc:format>image/svg+xml</dc:format>
    <dc:creator>
     <cc:Agent>
      <dc:title>Matplotlib v3.10.8, https://matplotlib.org/</dc:title>
     </cc:Agent>
    </dc:creator>
   </cc:Work>
  </rdf:RDF>
 </metadata>
 <defs>
  <style type="text/css">*{stroke-linejoin: round; stroke-linecap: butt}</style>
 </defs>
 <g id="figure_1">
  <g id="patch_1">
   <path d="M 0 444.244219 
L 1144.5675 444.244219 
L 1144.5675 0 
L 0 0 
z
" style="fill: #ffffff"/>
  </g>
  <g id="axes_1">
   <g id="patch_2">
    <path d="M 79.7625 397.32 
L 579.4575 397.32 
L 579.4575 65.76 
L 79.7625 65.76 
z
" style="fill: #ffffff"/>
   </g>
   <g id="matplotlib.axis_1">
    <g id="xtick_1">
     <g id="line2d_1">
      <path d="M 167.371364 397.32 
L 167.371364 65.76 
" clip-path="url(#pf80ff30078)" style="fill: none; stroke: #cccccc; stroke-width: 0.8; stroke-linecap: round"/>
     </g>
     <g id="line2d_2"/>
     <g id="text_1">
      <!-- 1.0 -->
      <g style="fill: #262626" transform="translate(156.946364 411.556719) scale(0.15 -0.15)">
       <defs>
        <path id="ArialMT-31" d="M 2384 0 
L 1822 0 
L 1822 3584 
Q 1619 3391 1289 3197 
Q 959 3003 697 2906 
L 697 3450 
Q 1169 3672 1522 3987 
Q 1875 4303 2022 4600 
L 2384 4600 
L 2384 0 
z
" transform="scale(0.015625)"/>
        <path id="ArialMT-2e" d="M 581 0 
L 581 641 
L 1222 641 
L 1222 0 
L 581 0 
z
" transform="scale(0.015625)"/>
        <path id="ArialMT-30" d="M 266 2259 
Q 266 3072 433 3567 
Q 600 4063 929 4331 
Q 1259 4600 1759 4600 
Q 2128 4600 2406 4451 
Q 2684 4303 2865 4023 
Q 3047 3744 3150 3342 
Q 3253 2941 3253 2259 
Q 3253 1453 3087 958 
Q 2922 463 2592 192 
Q 2263 -78 1759 -78 
Q 1097 -78 719 397 
Q 266 969 266 2259 
z
M 844 2259 
Q 844 1131 1108 757 
Q 1372 384 1759 384 
Q 2147 384 2411 759 
Q 2675 1134 2675 2259 
Q 2675 3391 2411 3762 
Q 2147 4134 1753 4134 
Q 1366 4134 1134 3806 
Q 844 3388 844 2259 
z
" transform="scale(0.015625)"/>
       </defs>
       <use xlink:href="#ArialMT-31"/>
       <use xlink:href="#ArialMT-2e" transform="translate(55.615234 0)"/>
       <use xlink:href="#ArialMT-30" transform="translate(83.398438 0)"/>
      </g>
     </g>
    </g>
    <g id="xtick_2">
     <g id="line2d_3">
      <path d="M 329.61 397.32 
L 329.61 65.76 
" clip-path="url(#pf80ff30078)" style="fill: none; stroke: #cccccc; stroke-width: 0.8; stroke-linecap: round"/>
     </g>
     <g id="line2d_4"/>
     <g id="text_2">
      <!-- 1.1 -->
      <g style="fill: #262626" transform="translate(319.185 411.556719) scale(0.15 -0.15)">
       <use xlink:href="#ArialMT-31"/>
       <use xlink:href="#ArialMT-2e" transform="translate(55.615234 0)"/>
       <use xlink:href="#ArialMT-31" transform="translate(83.398438 0)"/>
      </g>
     </g>
    </g>
    <g id="xtick_3">
     <g id="line2d_5">
      <path d="M 491.848636 397.32 
L 491.848636 65.76 
" clip-path="url(#pf80ff30078)" style="fill: none; stroke: #cccccc; stroke-width: 0.8; stroke-linecap: round"/>
     </g>
     <g id="line2d_6"/>
     <g id="text_3">
      <!-- 1.2 -->
      <g style="fill: #262626" transform="translate(481.423636 411.556719) scale(0.15 -0.15)">
       <defs>
        <path id="ArialMT-32" d="M 3222 541 
L 3222 0 
L 194 0 
Q 188 203 259 391 
Q 375 700 629 1000 
Q 884 1300 1366 1694 
Q 2113 2306 2375 2664 
Q 2638 3022 2638 3341 
Q 2638 3675 2398 3904 
Q 2159 4134 1775 4134 
Q 1369 4134 1125 3890 
Q 881 3647 878 3216 
L 300 3275 
Q 359 3922 746 4261 
Q 1134 4600 1788 4600 
Q 2447 4600 2831 4234 
Q 3216 3869 3216 3328 
Q 3216 3053 3103 2787 
Q 2991 2522 2730 2228 
Q 2469 1934 1863 1422 
Q 1356 997 1212 845 
Q 1069 694 975 541 
L 3222 541 
z
" transform="scale(0.015625)"/>
       </defs>
       <use xlink:href="#ArialMT-31"/>
       <use xlink:href="#ArialMT-2e" transform="translate(55.615234 0)"/>
       <use xlink:href="#ArialMT-32" transform="translate(83.398438 0)"/>
      </g>
     </g>
    </g>
    <g id="text_4">
     <!-- Communication Noise Multiplier -->
     <g style="fill: #262626" transform="translate(176.830312 433.097344) scale(0.2 -0.2)">
      <defs>
       <path id="Arial-BoldMT-43" d="M 3397 1684 
L 4294 1400 
Q 4088 650 3608 286 
Q 3128 -78 2391 -78 
Q 1478 -78 890 545 
Q 303 1169 303 2250 
Q 303 3394 893 4026 
Q 1484 4659 2447 4659 
Q 3288 4659 3813 4163 
Q 4125 3869 4281 3319 
L 3366 3100 
Q 3284 3456 3026 3662 
Q 2769 3869 2400 3869 
Q 1891 3869 1573 3503 
Q 1256 3138 1256 2319 
Q 1256 1450 1568 1081 
Q 1881 713 2381 713 
Q 2750 713 3015 947 
Q 3281 1181 3397 1684 
z
" transform="scale(0.015625)"/>
       <path id="Arial-BoldMT-6f" d="M 256 1706 
Q 256 2144 472 2553 
Q 688 2963 1083 3178 
Q 1478 3394 1966 3394 
Q 2719 3394 3200 2905 
Q 3681 2416 3681 1669 
Q 3681 916 3195 420 
Q 2709 -75 1972 -75 
Q 1516 -75 1102 131 
Q 688 338 472 736 
Q 256 1134 256 1706 
z
M 1156 1659 
Q 1156 1166 1390 903 
Q 1625 641 1969 641 
Q 2313 641 2545 903 
Q 2778 1166 2778 1666 
Q 2778 2153 2545 2415 
Q 2313 2678 1969 2678 
Q 1625 2678 1390 2415 
Q 1156 2153 1156 1659 
z
" transform="scale(0.015625)"/>
       <path id="Arial-BoldMT-6d" d="M 394 3319 
L 1203 3319 
L 1203 2866 
Q 1638 3394 2238 3394 
Q 2556 3394 2790 3262 
Q 3025 3131 3175 2866 
Q 3394 3131 3647 3262 
Q 3900 3394 4188 3394 
Q 4553 3394 4806 3245 
Q 5059 3097 5184 2809 
Q 5275 2597 5275 2122 
L 5275 0 
L 4397 0 
L 4397 1897 
Q 4397 2391 4306 2534 
Q 4184 2722 3931 2722 
Q 3747 2722 3584 2609 
Q 3422 2497 3350 2280 
Q 3278 2063 3278 1594 
L 3278 0 
L 2400 0 
L 2400 1819 
Q 2400 2303 2353 2443 
Q 2306 2584 2207 2653 
Q 2109 2722 1941 2722 
Q 1738 2722 1575 2612 
Q 1413 2503 1342 2297 
Q 1272 2091 1272 1613 
L 1272 0 
L 394 0 
L 394 3319 
z
" transform="scale(0.015625)"/>
       <path id="Arial-BoldMT-75" d="M 2644 0 
L 2644 497 
Q 2463 231 2167 78 
Q 1872 -75 1544 -75 
Q 1209 -75 943 72 
Q 678 219 559 484 
Q 441 750 441 1219 
L 441 3319 
L 1319 3319 
L 1319 1794 
Q 1319 1094 1367 936 
Q 1416 778 1544 686 
Q 1672 594 1869 594 
Q 2094 594 2272 717 
Q 2450 841 2515 1023 
Q 2581 1206 2581 1919 
L 2581 3319 
L 3459 3319 
L 3459 0 
L 2644 0 
z
" transform="scale(0.015625)"/>
       <path id="Arial-BoldMT-6e" d="M 3478 0 
L 2600 0 
L 2600 1694 
Q 2600 2231 2544 2389 
Q 2488 2547 2361 2634 
Q 2234 2722 2056 2722 
Q 1828 2722 1647 2597 
Q 1466 2472 1398 2265 
Q 1331 2059 1331 1503 
L 1331 0 
L 453 0 
L 453 3319 
L 1269 3319 
L 1269 2831 
Q 1703 3394 2363 3394 
Q 2653 3394 2893 3289 
Q 3134 3184 3257 3021 
Q 3381 2859 3429 2653 
Q 3478 2447 3478 2063 
L 3478 0 
z
" transform="scale(0.015625)"/>
       <path id="Arial-BoldMT-69" d="M 459 3769 
L 459 4581 
L 1338 4581 
L 1338 3769 
L 459 3769 
z
M 459 0 
L 459 3319 
L 1338 3319 
L 1338 0 
L 459 0 
z
" transform="scale(0.015625)"/>
       <path id="Arial-BoldMT-63" d="M 3353 2338 
L 2488 2181 
Q 2444 2441 2289 2572 
Q 2134 2703 1888 2703 
Q 1559 2703 1364 2476 
Q 1169 2250 1169 1719 
Q 1169 1128 1367 884 
Q 1566 641 1900 641 
Q 2150 641 2309 783 
Q 2469 925 2534 1272 
L 3397 1125 
Q 3263 531 2881 228 
Q 2500 -75 1859 -75 
Q 1131 -75 698 384 
Q 266 844 266 1656 
Q 266 2478 700 2936 
Q 1134 3394 1875 3394 
Q 2481 3394 2839 3133 
Q 3197 2872 3353 2338 
z
" transform="scale(0.015625)"/>
       <path id="Arial-BoldMT-61" d="M 1116 2306 
L 319 2450 
Q 453 2931 781 3162 
Q 1109 3394 1756 3394 
Q 2344 3394 2631 3255 
Q 2919 3116 3036 2902 
Q 3153 2688 3153 2116 
L 3144 1091 
Q 3144 653 3186 445 
Q 3228 238 3344 0 
L 2475 0 
Q 2441 88 2391 259 
Q 2369 338 2359 363 
Q 2134 144 1878 34 
Q 1622 -75 1331 -75 
Q 819 -75 523 203 
Q 228 481 228 906 
Q 228 1188 362 1408 
Q 497 1628 739 1745 
Q 981 1863 1438 1950 
Q 2053 2066 2291 2166 
L 2291 2253 
Q 2291 2506 2166 2614 
Q 2041 2722 1694 2722 
Q 1459 2722 1328 2630 
Q 1197 2538 1116 2306 
z
M 2291 1594 
Q 2122 1538 1756 1459 
Q 1391 1381 1278 1306 
Q 1106 1184 1106 997 
Q 1106 813 1243 678 
Q 1381 544 1594 544 
Q 1831 544 2047 700 
Q 2206 819 2256 991 
Q 2291 1103 2291 1419 
L 2291 1594 
z
" transform="scale(0.015625)"/>
       <path id="Arial-BoldMT-74" d="M 1981 3319 
L 1981 2619 
L 1381 2619 
L 1381 1281 
Q 1381 875 1398 808 
Q 1416 741 1477 697 
Q 1538 653 1625 653 
Q 1747 653 1978 738 
L 2053 56 
Q 1747 -75 1359 -75 
Q 1122 -75 931 4 
Q 741 84 652 211 
Q 563 338 528 553 
Q 500 706 500 1172 
L 500 2619 
L 97 2619 
L 97 3319 
L 500 3319 
L 500 3978 
L 1381 4491 
L 1381 3319 
L 1981 3319 
z
" transform="scale(0.015625)"/>
       <path id="Arial-BoldMT-20" transform="scale(0.015625)"/>
       <path id="Arial-BoldMT-4e" d="M 475 0 
L 475 4581 
L 1375 4581 
L 3250 1522 
L 3250 4581 
L 4109 4581 
L 4109 0 
L 3181 0 
L 1334 2988 
L 1334 0 
L 475 0 
z
" transform="scale(0.015625)"/>
       <path id="Arial-BoldMT-73" d="M 150 947 
L 1031 1081 
Q 1088 825 1259 692 
Q 1431 559 1741 559 
Q 2081 559 2253 684 
Q 2369 772 2369 919 
Q 2369 1019 2306 1084 
Q 2241 1147 2013 1200 
Q 950 1434 666 1628 
Q 272 1897 272 2375 
Q 272 2806 612 3100 
Q 953 3394 1669 3394 
Q 2350 3394 2681 3172 
Q 3013 2950 3138 2516 
L 2309 2363 
Q 2256 2556 2107 2659 
Q 1959 2763 1684 2763 
Q 1338 2763 1188 2666 
Q 1088 2597 1088 2488 
Q 1088 2394 1175 2328 
Q 1294 2241 1995 2081 
Q 2697 1922 2975 1691 
Q 3250 1456 3250 1038 
Q 3250 581 2869 253 
Q 2488 -75 1741 -75 
Q 1063 -75 667 200 
Q 272 475 150 947 
z
" transform="scale(0.015625)"/>
       <path id="Arial-BoldMT-65" d="M 2381 1056 
L 3256 909 
Q 3088 428 2723 176 
Q 2359 -75 1813 -75 
Q 947 -75 531 491 
Q 203 944 203 1634 
Q 203 2459 634 2926 
Q 1066 3394 1725 3394 
Q 2466 3394 2894 2905 
Q 3322 2416 3303 1406 
L 1103 1406 
Q 1113 1016 1316 798 
Q 1519 581 1822 581 
Q 2028 581 2168 693 
Q 2309 806 2381 1056 
z
M 2431 1944 
Q 2422 2325 2234 2523 
Q 2047 2722 1778 2722 
Q 1491 2722 1303 2513 
Q 1116 2303 1119 1944 
L 2431 1944 
z
" transform="scale(0.015625)"/>
       <path id="Arial-BoldMT-4d" d="M 453 0 
L 453 4581 
L 1838 4581 
L 2669 1456 
L 3491 4581 
L 4878 4581 
L 4878 0 
L 4019 0 
L 4019 3606 
L 3109 0 
L 2219 0 
L 1313 3606 
L 1313 0 
L 453 0 
z
" transform="scale(0.015625)"/>
       <path id="Arial-BoldMT-6c" d="M 459 0 
L 459 4581 
L 1338 4581 
L 1338 0 
L 459 0 
z
" transform="scale(0.015625)"/>
       <path id="Arial-BoldMT-70" d="M 434 3319 
L 1253 3319 
L 1253 2831 
Q 1413 3081 1684 3237 
Q 1956 3394 2288 3394 
Q 2866 3394 3269 2941 
Q 3672 2488 3672 1678 
Q 3672 847 3265 386 
Q 2859 -75 2281 -75 
Q 2006 -75 1782 34 
Q 1559 144 1313 409 
L 1313 -1263 
L 434 -1263 
L 434 3319 
z
M 1303 1716 
Q 1303 1156 1525 889 
Q 1747 622 2066 622 
Q 2372 622 2575 867 
Q 2778 1113 2778 1672 
Q 2778 2194 2568 2447 
Q 2359 2700 2050 2700 
Q 1728 2700 1515 2451 
Q 1303 2203 1303 1716 
z
" transform="scale(0.015625)"/>
       <path id="Arial-BoldMT-72" d="M 1300 0 
L 422 0 
L 422 3319 
L 1238 3319 
L 1238 2847 
Q 1447 3181 1614 3287 
Q 1781 3394 1994 3394 
Q 2294 3394 2572 3228 
L 2300 2463 
Q 2078 2606 1888 2606 
Q 1703 2606 1575 2504 
Q 1447 2403 1373 2137 
Q 1300 1872 1300 1025 
L 1300 0 
z
" transform="scale(0.015625)"/>
      </defs>
      <use xlink:href="#Arial-BoldMT-43"/>
      <use xlink:href="#Arial-BoldMT-6f" transform="translate(72.216797 0)"/>
      <use xlink:href="#Arial-BoldMT-6d" transform="translate(133.300781 0)"/>
      <use xlink:href="#Arial-BoldMT-6d" transform="translate(222.216797 0)"/>
      <use xlink:href="#Arial-BoldMT-75" transform="translate(311.132812 0)"/>
      <use xlink:href="#Arial-BoldMT-6e" transform="translate(372.216797 0)"/>
      <use xlink:href="#Arial-BoldMT-69" transform="translate(433.300781 0)"/>
      <use xlink:href="#Arial-BoldMT-63" transform="translate(461.083984 0)"/>
      <use xlink:href="#Arial-BoldMT-61" transform="translate(516.699219 0)"/>
      <use xlink:href="#Arial-BoldMT-74" transform="translate(572.314453 0)"/>
      <use xlink:href="#Arial-BoldMT-69" transform="translate(605.615234 0)"/>
      <use xlink:href="#Arial-BoldMT-6f" transform="translate(633.398438 0)"/>
      <use xlink:href="#Arial-BoldMT-6e" transform="translate(694.482422 0)"/>
      <use xlink:href="#Arial-BoldMT-20" transform="translate(755.566406 0)"/>
      <use xlink:href="#Arial-BoldMT-4e" transform="translate(783.349609 0)"/>
      <use xlink:href="#Arial-BoldMT-6f" transform="translate(855.566406 0)"/>
      <use xlink:href="#Arial-BoldMT-69" transform="translate(916.650391 0)"/>
      <use xlink:href="#Arial-BoldMT-73" transform="translate(944.433594 0)"/>
      <use xlink:href="#Arial-BoldMT-65" transform="translate(1000.048828 0)"/>
      <use xlink:href="#Arial-BoldMT-20" transform="translate(1055.664062 0)"/>
      <use xlink:href="#Arial-BoldMT-4d" transform="translate(1083.447266 0)"/>
      <use xlink:href="#Arial-BoldMT-75" transform="translate(1166.748047 0)"/>
      <use xlink:href="#Arial-BoldMT-6c" transform="translate(1227.832031 0)"/>
      <use xlink:href="#Arial-BoldMT-74" transform="translate(1255.615234 0)"/>
      <use xlink:href="#Arial-BoldMT-69" transform="translate(1288.916016 0)"/>
      <use xlink:href="#Arial-BoldMT-70" transform="translate(1316.699219 0)"/>
      <use xlink:href="#Arial-BoldMT-6c" transform="translate(1377.783203 0)"/>
      <use xlink:href="#Arial-BoldMT-69" transform="translate(1405.566406 0)"/>
      <use xlink:href="#Arial-BoldMT-65" transform="translate(1433.349609 0)"/>
      <use xlink:href="#Arial-BoldMT-72" transform="translate(1488.964844 0)"/>
     </g>
    </g>
   </g>
   <g id="matplotlib.axis_2">
    <g id="ytick_1">
     <g id="line2d_7">
      <path d="M 79.7625 395.516177 
L 579.4575 395.516177 
" clip-path="url(#pf80ff30078)" style="fill: none; stroke: #cccccc; stroke-opacity: 0.3; stroke-width: 0.8; stroke-linecap: round"/>
     </g>
     <g id="line2d_8"/>
     <g id="text_5">
      <!-- −0.075 -->
      <g style="fill: #262626" transform="translate(29.96875 400.884536) scale(0.15 -0.15)">
       <defs>
        <path id="ArialMT-2212" d="M 3381 1997 
L 356 1997 
L 356 2522 
L 3381 2522 
L 3381 1997 
z
" transform="scale(0.015625)"/>
        <path id="ArialMT-37" d="M 303 3981 
L 303 4522 
L 3269 4522 
L 3269 4084 
Q 2831 3619 2401 2847 
Q 1972 2075 1738 1259 
Q 1569 684 1522 0 
L 944 0 
Q 953 541 1156 1306 
Q 1359 2072 1739 2783 
Q 2119 3494 2547 3981 
L 303 3981 
z
" transform="scale(0.015625)"/>
        <path id="ArialMT-35" d="M 266 1200 
L 856 1250 
Q 922 819 1161 601 
Q 1400 384 1738 384 
Q 2144 384 2425 690 
Q 2706 997 2706 1503 
Q 2706 1984 2436 2262 
Q 2166 2541 1728 2541 
Q 1456 2541 1237 2417 
Q 1019 2294 894 2097 
L 366 2166 
L 809 4519 
L 3088 4519 
L 3088 3981 
L 1259 3981 
L 1013 2750 
Q 1425 3038 1878 3038 
Q 2478 3038 2890 2622 
Q 3303 2206 3303 1553 
Q 3303 931 2941 478 
Q 2500 -78 1738 -78 
Q 1113 -78 717 272 
Q 322 622 266 1200 
z
" transform="scale(0.015625)"/>
       </defs>
       <use xlink:href="#ArialMT-2212"/>
       <use xlink:href="#ArialMT-30" transform="translate(58.398438 0)"/>
       <use xlink:href="#ArialMT-2e" transform="translate(114.013672 0)"/>
       <use xlink:href="#ArialMT-30" transform="translate(141.796875 0)"/>
       <use xlink:href="#ArialMT-37" transform="translate(197.412109 0)"/>
       <use xlink:href="#ArialMT-35" transform="translate(253.027344 0)"/>
      </g>
     </g>
    </g>
    <g id="ytick_2">
     <g id="line2d_9">
      <path d="M 79.7625 356.368181 
L 579.4575 356.368181 
" clip-path="url(#pf80ff30078)" style="fill: none; stroke: #cccccc; stroke-opacity: 0.3; stroke-width: 0.8; stroke-linecap: round"/>
     </g>
     <g id="line2d_10"/>
     <g id="text_6">
      <!-- −0.050 -->
      <g style="fill: #262626" transform="translate(29.96875 361.736541) scale(0.15 -0.15)">
       <use xlink:href="#ArialMT-2212"/>
       <use xlink:href="#ArialMT-30" transform="translate(58.398438 0)"/>
       <use xlink:href="#ArialMT-2e" transform="translate(114.013672 0)"/>
       <use xlink:href="#ArialMT-30" transform="translate(141.796875 0)"/>
       <use xlink:href="#ArialMT-35" transform="translate(197.412109 0)"/>
       <use xlink:href="#ArialMT-30" transform="translate(253.027344 0)"/>
      </g>
     </g>
    </g>
    <g id="ytick_3">
     <g id="line2d_11">
      <path d="M 79.7625 317.220186 
L 579.4575 317.220186 
" clip-path="url(#pf80ff30078)" style="fill: none; stroke: #cccccc; stroke-opacity: 0.3; stroke-width: 0.8; stroke-linecap: round"/>
     </g>
     <g id="line2d_12"/>
     <g id="text_7">
      <!-- −0.025 -->
      <g style="fill: #262626" transform="translate(29.96875 322.588545) scale(0.15 -0.15)">
       <use xlink:href="#ArialMT-2212"/>
       <use xlink:href="#ArialMT-30" transform="translate(58.398438 0)"/>
       <use xlink:href="#ArialMT-2e" transform="translate(114.013672 0)"/>
       <use xlink:href="#ArialMT-30" transform="translate(141.796875 0)"/>
       <use xlink:href="#ArialMT-32" transform="translate(197.412109 0)"/>
       <use xlink:href="#ArialMT-35" transform="translate(253.027344 0)"/>
      </g>
     </g>
    </g>
    <g id="ytick_4">
     <g id="line2d_13">
      <path d="M 79.7625 278.07219 
L 579.4575 278.07219 
" clip-path="url(#pf80ff30078)" style="fill: none; stroke: #cccccc; stroke-opacity: 0.3; stroke-width: 0.8; stroke-linecap: round"/>
     </g>
     <g id="line2d_14"/>
     <g id="text_8">
      <!-- 0.000 -->
      <g style="fill: #262626" transform="translate(38.729688 283.440549) scale(0.15 -0.15)">
       <use xlink:href="#ArialMT-30"/>
       <use xlink:href="#ArialMT-2e" transform="translate(55.615234 0)"/>
       <use xlink:href="#ArialMT-30" transform="translate(83.398438 0)"/>
       <use xlink:href="#ArialMT-30" transform="translate(139.013672 0)"/>
       <use xlink:href="#ArialMT-30" transform="translate(194.628906 0)"/>
      </g>
     </g>
    </g>
    <g id="ytick_5">
     <g id="line2d_15">
      <path d="M 79.7625 238.924194 
L 579.4575 238.924194 
" clip-path="url(#pf80ff30078)" style="fill: none; stroke: #cccccc; stroke-opacity: 0.3; stroke-width: 0.8; stroke-linecap: round"/>
     </g>
     <g id="line2d_16"/>
     <g id="text_9">
      <!-- 0.025 -->
      <g style="fill: #262626" transform="translate(38.729688 244.292554) scale(0.15 -0.15)">
       <use xlink:href="#ArialMT-30"/>
       <use xlink:href="#ArialMT-2e" transform="translate(55.615234 0)"/>
       <use xlink:href="#ArialMT-30" transform="translate(83.398438 0)"/>
       <use xlink:href="#ArialMT-32" transform="translate(139.013672 0)"/>
       <use xlink:href="#ArialMT-35" transform="translate(194.628906 0)"/>
      </g>
     </g>
    </g>
    <g id="ytick_6">
     <g id="line2d_17">
      <path d="M 79.7625 199.776199 
L 579.4575 199.776199 
" clip-path="url(#pf80ff30078)" style="fill: none; stroke: #cccccc; stroke-opacity: 0.3; stroke-width: 0.8; stroke-linecap: round"/>
     </g>
     <g id="line2d_18"/>
     <g id="text_10">
      <!-- 0.050 -->
      <g style="fill: #262626" transform="translate(38.729688 205.144558) scale(0.15 -0.15)">
       <use xlink:href="#ArialMT-30"/>
       <use xlink:href="#ArialMT-2e" transform="translate(55.615234 0)"/>
       <use xlink:href="#ArialMT-30" transform="translate(83.398438 0)"/>
       <use xlink:href="#ArialMT-35" transform="translate(139.013672 0)"/>
       <use xlink:href="#ArialMT-30" transform="translate(194.628906 0)"/>
      </g>
     </g>
    </g>
    <g id="ytick_7">
     <g id="line2d_19">
      <path d="M 79.7625 160.628203 
L 579.4575 160.628203 
" clip-path="url(#pf80ff30078)" style="fill: none; stroke: #cccccc; stroke-opacity: 0.3; stroke-width: 0.8; stroke-linecap: round"/>
     </g>
     <g id="line2d_20"/>
     <g id="text_11">
      <!-- 0.075 -->
      <g style="fill: #262626" transform="translate(38.729688 165.996562) scale(0.15 -0.15)">
       <use xlink:href="#ArialMT-30"/>
       <use xlink:href="#ArialMT-2e" transform="translate(55.615234 0)"/>
       <use xlink:href="#ArialMT-30" transform="translate(83.398438 0)"/>
       <use xlink:href="#ArialMT-37" transform="translate(139.013672 0)"/>
       <use xlink:href="#ArialMT-35" transform="translate(194.628906 0)"/>
      </g>
     </g>
    </g>
    <g id="ytick_8">
     <g id="line2d_21">
      <path d="M 79.7625 121.480207 
L 579.4575 121.480207 
" clip-path="url(#pf80ff30078)" style="fill: none; stroke: #cccccc; stroke-opacity: 0.3; stroke-width: 0.8; stroke-linecap: round"/>
     </g>
     <g id="line2d_22"/>
     <g id="text_12">
      <!-- 0.100 -->
      <g style="fill: #262626" transform="translate(38.729688 126.848567) scale(0.15 -0.15)">
       <use xlink:href="#ArialMT-30"/>
       <use xlink:href="#ArialMT-2e" transform="translate(55.615234 0)"/>
       <use xlink:href="#ArialMT-31" transform="translate(83.398438 0)"/>
       <use xlink:href="#ArialMT-30" transform="translate(139.013672 0)"/>
       <use xlink:href="#ArialMT-30" transform="translate(194.628906 0)"/>
      </g>
     </g>
    </g>
    <g id="ytick_9">
     <g id="line2d_23">
      <path d="M 79.7625 82.332211 
L 579.4575 82.332211 
" clip-path="url(#pf80ff30078)" style="fill: none; stroke: #cccccc; stroke-opacity: 0.3; stroke-width: 0.8; stroke-linecap: round"/>
     </g>
     <g id="line2d_24"/>
     <g id="text_13">
      <!-- 0.125 -->
      <g style="fill: #262626" transform="translate(38.729688 87.700571) scale(0.15 -0.15)">
       <use xlink:href="#ArialMT-30"/>
       <use xlink:href="#ArialMT-2e" transform="translate(55.615234 0)"/>
       <use xlink:href="#ArialMT-31" transform="translate(83.398438 0)"/>
       <use xlink:href="#ArialMT-32" transform="translate(139.013672 0)"/>
       <use xlink:href="#ArialMT-35" transform="translate(194.628906 0)"/>
      </g>
     </g>
    </g>
    <g id="text_14">
     <!-- Error Reduction (Relative) -->
     <g style="fill: #262626" transform="translate(21.759375 355.444687) rotate(-90) scale(0.2 -0.2)">
      <defs>
       <path id="Arial-BoldMT-45" d="M 466 0 
L 466 4581 
L 3863 4581 
L 3863 3806 
L 1391 3806 
L 1391 2791 
L 3691 2791 
L 3691 2019 
L 1391 2019 
L 1391 772 
L 3950 772 
L 3950 0 
L 466 0 
z
" transform="scale(0.015625)"/>
       <path id="Arial-BoldMT-52" d="M 469 0 
L 469 4581 
L 2416 4581 
Q 3150 4581 3483 4457 
Q 3816 4334 4016 4018 
Q 4216 3703 4216 3297 
Q 4216 2781 3912 2445 
Q 3609 2109 3006 2022 
Q 3306 1847 3501 1637 
Q 3697 1428 4028 894 
L 4588 0 
L 3481 0 
L 2813 997 
Q 2456 1531 2325 1670 
Q 2194 1809 2047 1861 
Q 1900 1913 1581 1913 
L 1394 1913 
L 1394 0 
L 469 0 
z
M 1394 2644 
L 2078 2644 
Q 2744 2644 2909 2700 
Q 3075 2756 3169 2893 
Q 3263 3031 3263 3238 
Q 3263 3469 3139 3611 
Q 3016 3753 2791 3791 
Q 2678 3806 2116 3806 
L 1394 3806 
L 1394 2644 
z
" transform="scale(0.015625)"/>
       <path id="Arial-BoldMT-64" d="M 3503 0 
L 2688 0 
L 2688 488 
Q 2484 203 2207 64 
Q 1931 -75 1650 -75 
Q 1078 -75 670 386 
Q 263 847 263 1672 
Q 263 2516 659 2955 
Q 1056 3394 1663 3394 
Q 2219 3394 2625 2931 
L 2625 4581 
L 3503 4581 
L 3503 0 
z
M 1159 1731 
Q 1159 1200 1306 963 
Q 1519 619 1900 619 
Q 2203 619 2415 876 
Q 2628 1134 2628 1647 
Q 2628 2219 2422 2470 
Q 2216 2722 1894 2722 
Q 1581 2722 1370 2473 
Q 1159 2225 1159 1731 
z
" transform="scale(0.015625)"/>
       <path id="Arial-BoldMT-28" d="M 1916 -1347 
L 1313 -1347 
Q 834 -625 584 153 
Q 334 931 334 1659 
Q 334 2563 644 3369 
Q 913 4069 1325 4659 
L 1925 4659 
Q 1497 3713 1336 3048 
Q 1175 2384 1175 1641 
Q 1175 1128 1270 590 
Q 1366 53 1531 -431 
Q 1641 -750 1916 -1347 
z
" transform="scale(0.015625)"/>
       <path id="Arial-BoldMT-76" d="M 1372 0 
L 34 3319 
L 956 3319 
L 1581 1625 
L 1763 1059 
Q 1834 1275 1853 1344 
Q 1897 1484 1947 1625 
L 2578 3319 
L 3481 3319 
L 2163 0 
L 1372 0 
z
" transform="scale(0.015625)"/>
       <path id="Arial-BoldMT-29" d="M 216 -1347 
Q 475 -791 581 -494 
Q 688 -197 778 190 
Q 869 578 912 926 
Q 956 1275 956 1641 
Q 956 2384 797 3048 
Q 638 3713 209 4659 
L 806 4659 
Q 1278 3988 1539 3234 
Q 1800 2481 1800 1706 
Q 1800 1053 1594 306 
Q 1359 -531 822 -1347 
L 216 -1347 
z
" transform="scale(0.015625)"/>
      </defs>
      <use xlink:href="#Arial-BoldMT-45"/>
      <use xlink:href="#Arial-BoldMT-72" transform="translate(66.699219 0)"/>
      <use xlink:href="#Arial-BoldMT-72" transform="translate(105.615234 0)"/>
      <use xlink:href="#Arial-BoldMT-6f" transform="translate(144.53125 0)"/>
      <use xlink:href="#Arial-BoldMT-72" transform="translate(205.615234 0)"/>
      <use xlink:href="#Arial-BoldMT-20" transform="translate(244.53125 0)"/>
      <use xlink:href="#Arial-BoldMT-52" transform="translate(272.314453 0)"/>
      <use xlink:href="#Arial-BoldMT-65" transform="translate(344.53125 0)"/>
      <use xlink:href="#Arial-BoldMT-64" transform="translate(400.146484 0)"/>
      <use xlink:href="#Arial-BoldMT-75" transform="translate(461.230469 0)"/>
      <use xlink:href="#Arial-BoldMT-63" transform="translate(522.314453 0)"/>
      <use xlink:href="#Arial-BoldMT-74" transform="translate(577.929688 0)"/>
      <use xlink:href="#Arial-BoldMT-69" transform="translate(611.230469 0)"/>
      <use xlink:href="#Arial-BoldMT-6f" transform="translate(639.013672 0)"/>
      <use xlink:href="#Arial-BoldMT-6e" transform="translate(700.097656 0)"/>
      <use xlink:href="#Arial-BoldMT-20" transform="translate(761.181641 0)"/>
      <use xlink:href="#Arial-BoldMT-28" transform="translate(788.964844 0)"/>
      <use xlink:href="#Arial-BoldMT-52" transform="translate(822.265625 0)"/>
      <use xlink:href="#Arial-BoldMT-65" transform="translate(894.482422 0)"/>
      <use xlink:href="#Arial-BoldMT-6c" transform="translate(950.097656 0)"/>
      <use xlink:href="#Arial-BoldMT-61" transform="translate(977.880859 0)"/>
      <use xlink:href="#Arial-BoldMT-74" transform="translate(1033.496094 0)"/>
      <use xlink:href="#Arial-BoldMT-69" transform="translate(1066.796875 0)"/>
      <use xlink:href="#Arial-BoldMT-76" transform="translate(1094.580078 0)"/>
      <use xlink:href="#Arial-BoldMT-65" transform="translate(1150.195312 0)"/>
      <use xlink:href="#Arial-BoldMT-29" transform="translate(1205.810547 0)"/>
     </g>
    </g>
   </g>
   <g id="patch_3">
    <path d="M 102.475909 278.07219 
L 167.371364 278.07219 
L 167.371364 216.154674 
L 102.475909 216.154674 
z
" clip-path="url(#pf80ff30078)" style="fill: #f77189; opacity: 0.8"/>
   </g>
   <g id="patch_4">
    <path d="M 264.714545 278.07219 
L 329.61 278.07219 
L 329.61 176.983687 
L 264.714545 176.983687 
z
" clip-path="url(#pf80ff30078)" style="fill: #f77189; opacity: 0.8"/>
   </g>
   <g id="patch_5">
    <path d="M 426.953182 278.07219 
L 491.848636 278.07219 
L 491.848636 272.709442 
L 426.953182 272.709442 
z
" clip-path="url(#pf80ff30078)" style="fill: #f77189; opacity: 0.8"/>
   </g>
   <g id="patch_6">
    <path d="M 167.371364 278.07219 
L 232.266818 278.07219 
L 232.266818 313.448499 
L 167.371364 313.448499 
z
" clip-path="url(#pf80ff30078)" style="fill: #bb9832; opacity: 0.8"/>
   </g>
   <g id="patch_7">
    <path d="M 329.61 278.07219 
L 394.505455 278.07219 
L 394.505455 284.523203 
L 329.61 284.523203 
z
" clip-path="url(#pf80ff30078)" style="fill: #bb9832; opacity: 0.8"/>
   </g>
   <g id="patch_8">
    <path d="M 491.848636 278.07219 
L 556.744091 278.07219 
L 556.744091 286.738325 
L 491.848636 286.738325 
z
" clip-path="url(#pf80ff30078)" style="fill: #bb9832; opacity: 0.8"/>
   </g>
   <g id="LineCollection_1">
    <path d="M 134.923636 318.844326 
L 134.923636 113.465021 
" clip-path="url(#pf80ff30078)" style="fill: none; stroke: #000000; stroke-width: 1.5"/>
    <path d="M 297.162273 273.136464 
L 297.162273 80.830909 
" clip-path="url(#pf80ff30078)" style="fill: none; stroke: #000000; stroke-width: 1.5"/>
    <path d="M 459.400909 382.249091 
L 459.400909 163.169794 
" clip-path="url(#pf80ff30078)" style="fill: none; stroke: #000000; stroke-width: 1.5"/>
   </g>
   <g id="line2d_25">
    <defs>
     <path id="mcf544dc644" d="M 4 0 
L -4 -0 
" style="stroke: #000000"/>
    </defs>
    <g clip-path="url(#pf80ff30078)">
     <use xlink:href="#mcf544dc644" x="134.923636" y="318.844326" style="fill: #f77189; stroke: #000000"/>
     <use xlink:href="#mcf544dc644" x="297.162273" y="273.136464" style="fill: #f77189; stroke: #000000"/>
     <use xlink:href="#mcf544dc644" x="459.400909" y="382.249091" style="fill: #f77189; stroke: #000000"/>
    </g>
   </g>
   <g id="line2d_26">
    <g clip-path="url(#pf80ff30078)">
     <use xlink:href="#mcf544dc644" x="134.923636" y="113.465021" style="fill: #f77189; stroke: #000000"/>
     <use xlink:href="#mcf544dc644" x="297.162273" y="80.830909" style="fill: #f77189; stroke: #000000"/>
     <use xlink:href="#mcf544dc644" x="459.400909" y="163.169794" style="fill: #f77189; stroke: #000000"/>
    </g>
   </g>
   <g id="LineCollection_2">
    <path d="M 199.819091 348.052526 
L 199.819091 278.844473 
" clip-path="url(#pf80ff30078)" style="fill: none; stroke: #000000; stroke-width: 1.5"/>
    <path d="M 362.057727 317.525442 
L 362.057727 251.520965 
" clip-path="url(#pf80ff30078)" style="fill: none; stroke: #000000; stroke-width: 1.5"/>
    <path d="M 524.296364 319.219225 
L 524.296364 254.257426 
" clip-path="url(#pf80ff30078)" style="fill: none; stroke: #000000; stroke-width: 1.5"/>
   </g>
   <g id="line2d_27">
    <g clip-path="url(#pf80ff30078)">
     <use xlink:href="#mcf544dc644" x="199.819091" y="348.052526" style="fill: #f77189; stroke: #000000"/>
     <use xlink:href="#mcf544dc644" x="362.057727" y="317.525442" style="fill: #f77189; stroke: #000000"/>
     <use xlink:href="#mcf544dc644" x="524.296364" y="319.219225" style="fill: #f77189; stroke: #000000"/>
    </g>
   </g>
   <g id="line2d_28">
    <g clip-path="url(#pf80ff30078)">
     <use xlink:href="#mcf544dc644" x="199.819091" y="278.844473" style="fill: #f77189; stroke: #000000"/>
     <use xlink:href="#mcf544dc644" x="362.057727" y="251.520965" style="fill: #f77189; stroke: #000000"/>
     <use xlink:href="#mcf544dc644" x="524.296364" y="254.257426" style="fill: #f77189; stroke: #000000"/>
    </g>
   </g>
   <g id="line2d_29">
    <path d="M 79.7625 278.07219 
L 579.4575 278.07219 
" clip-path="url(#pf80ff30078)" style="fill: none; stroke-dasharray: 5.55,2.4; stroke-dashoffset: 0; stroke: #ff0000; stroke-opacity: 0.5; stroke-width: 1.5"/>
   </g>
   <g id="patch_9">
    <path d="M 79.7625 397.32 
L 79.7625 65.76 
" style="fill: none; stroke: #cccccc; stroke-linejoin: miter; stroke-linecap: square"/>
   </g>
   <g id="patch_10">
    <path d="M 579.4575 397.32 
L 579.4575 65.76 
" style="fill: none; stroke: #cccccc; stroke-linejoin: miter; stroke-linecap: square"/>
   </g>
   <g id="patch_11">
    <path d="M 79.7625 397.32 
L 579.4575 397.32 
" style="fill: none; stroke: #cccccc; stroke-linejoin: miter; stroke-linecap: square"/>
   </g>
   <g id="patch_12">
    <path d="M 79.7625 65.76 
L 579.4575 65.76 
" style="fill: none; stroke: #cccccc; stroke-linejoin: miter; stroke-linecap: square"/>
   </g>
   <g id="text_15">
    <!-- (a) Relative Improvement -->
    <g style="fill: #262626" transform="translate(252.312812 59.76) scale(0.13 -0.13)">
     <defs>
      <path id="Arial-BoldMT-49" d="M 438 0 
L 438 4581 
L 1363 4581 
L 1363 0 
L 438 0 
z
" transform="scale(0.015625)"/>
     </defs>
     <use xlink:href="#Arial-BoldMT-28"/>
     <use xlink:href="#Arial-BoldMT-61" transform="translate(33.300781 0)"/>
     <use xlink:href="#Arial-BoldMT-29" transform="translate(88.916016 0)"/>
     <use xlink:href="#Arial-BoldMT-20" transform="translate(122.216797 0)"/>
     <use xlink:href="#Arial-BoldMT-52" transform="translate(150 0)"/>
     <use xlink:href="#Arial-BoldMT-65" transform="translate(222.216797 0)"/>
     <use xlink:href="#Arial-BoldMT-6c" transform="translate(277.832031 0)"/>
     <use xlink:href="#Arial-BoldMT-61" transform="translate(305.615234 0)"/>
     <use xlink:href="#Arial-BoldMT-74" transform="translate(361.230469 0)"/>
     <use xlink:href="#Arial-BoldMT-69" transform="translate(394.53125 0)"/>
     <use xlink:href="#Arial-BoldMT-76" transform="translate(422.314453 0)"/>
     <use xlink:href="#Arial-BoldMT-65" transform="translate(477.929688 0)"/>
     <use xlink:href="#Arial-BoldMT-20" transform="translate(533.544922 0)"/>
     <use xlink:href="#Arial-BoldMT-49" transform="translate(561.328125 0)"/>
     <use xlink:href="#Arial-BoldMT-6d" transform="translate(589.111328 0)"/>
     <use xlink:href="#Arial-BoldMT-70" transform="translate(678.027344 0)"/>
     <use xlink:href="#Arial-BoldMT-72" transform="translate(739.111328 0)"/>
     <use xlink:href="#Arial-BoldMT-6f" transform="translate(778.027344 0)"/>
     <use xlink:href="#Arial-BoldMT-76" transform="translate(839.111328 0)"/>
     <use xlink:href="#Arial-BoldMT-65" transform="translate(894.726562 0)"/>
     <use xlink:href="#Arial-BoldMT-6d" transform="translate(950.341797 0)"/>
     <use xlink:href="#Arial-BoldMT-65" transform="translate(1039.257812 0)"/>
     <use xlink:href="#Arial-BoldMT-6e" transform="translate(1094.873047 0)"/>
     <use xlink:href="#Arial-BoldMT-74" transform="translate(1155.957031 0)"/>
    </g>
   </g>
   <g id="legend_1">
    <g id="patch_13">
     <path d="M 462.929375 122.195937 
L 570.9575 122.195937 
Q 573.9575 122.195937 573.9575 119.195937 
L 573.9575 78.26 
Q 573.9575 75.26 570.9575 75.26 
L 462.929375 75.26 
Q 459.929375 75.26 459.929375 78.26 
L 459.929375 119.195937 
Q 459.929375 122.195937 462.929375 122.195937 
z
" style="fill: #4d4d4d; opacity: 0.5; stroke: #4d4d4d; stroke-linejoin: miter"/>
    </g>
    <g id="patch_14">
     <path d="M 460.929375 120.195937 
L 568.9575 120.195937 
Q 571.9575 120.195937 571.9575 117.195937 
L 571.9575 76.26 
Q 571.9575 73.26 568.9575 73.26 
L 460.929375 73.26 
Q 457.929375 73.26 457.929375 76.26 
L 457.929375 117.195937 
Q 457.929375 120.195937 460.929375 120.195937 
z
" style="fill: #ffffff; stroke: #cccccc; stroke-linejoin: miter"/>
    </g>
    <g id="patch_15">
     <path d="M 463.929375 89.996719 
L 493.929375 89.996719 
L 493.929375 79.496719 
L 463.929375 79.496719 
z
" style="fill: #f77189; opacity: 0.8"/>
    </g>
    <g id="text_16">
     <!-- GLOBAL -->
     <g style="fill: #262626" transform="translate(505.929375 89.996719) scale(0.15 -0.15)">
      <defs>
       <path id="ArialMT-47" d="M 2638 1797 
L 2638 2334 
L 4578 2338 
L 4578 638 
Q 4131 281 3656 101 
Q 3181 -78 2681 -78 
Q 2006 -78 1454 211 
Q 903 500 622 1047 
Q 341 1594 341 2269 
Q 341 2938 620 3517 
Q 900 4097 1425 4378 
Q 1950 4659 2634 4659 
Q 3131 4659 3532 4498 
Q 3934 4338 4162 4050 
Q 4391 3763 4509 3300 
L 3963 3150 
Q 3859 3500 3706 3700 
Q 3553 3900 3268 4020 
Q 2984 4141 2638 4141 
Q 2222 4141 1919 4014 
Q 1616 3888 1430 3681 
Q 1244 3475 1141 3228 
Q 966 2803 966 2306 
Q 966 1694 1177 1281 
Q 1388 869 1791 669 
Q 2194 469 2647 469 
Q 3041 469 3416 620 
Q 3791 772 3984 944 
L 3984 1797 
L 2638 1797 
z
" transform="scale(0.015625)"/>
       <path id="ArialMT-4c" d="M 469 0 
L 469 4581 
L 1075 4581 
L 1075 541 
L 3331 541 
L 3331 0 
L 469 0 
z
" transform="scale(0.015625)"/>
       <path id="ArialMT-4f" d="M 309 2231 
Q 309 3372 921 4017 
Q 1534 4663 2503 4663 
Q 3138 4663 3647 4359 
Q 4156 4056 4423 3514 
Q 4691 2972 4691 2284 
Q 4691 1588 4409 1038 
Q 4128 488 3612 205 
Q 3097 -78 2500 -78 
Q 1853 -78 1343 234 
Q 834 547 571 1087 
Q 309 1628 309 2231 
z
M 934 2222 
Q 934 1394 1379 917 
Q 1825 441 2497 441 
Q 3181 441 3623 922 
Q 4066 1403 4066 2288 
Q 4066 2847 3877 3264 
Q 3688 3681 3323 3911 
Q 2959 4141 2506 4141 
Q 1863 4141 1398 3698 
Q 934 3256 934 2222 
z
" transform="scale(0.015625)"/>
       <path id="ArialMT-42" d="M 469 0 
L 469 4581 
L 2188 4581 
Q 2713 4581 3030 4442 
Q 3347 4303 3526 4014 
Q 3706 3725 3706 3409 
Q 3706 3116 3547 2856 
Q 3388 2597 3066 2438 
Q 3481 2316 3704 2022 
Q 3928 1728 3928 1328 
Q 3928 1006 3792 729 
Q 3656 453 3456 303 
Q 3256 153 2954 76 
Q 2653 0 2216 0 
L 469 0 
z
M 1075 2656 
L 2066 2656 
Q 2469 2656 2644 2709 
Q 2875 2778 2992 2937 
Q 3109 3097 3109 3338 
Q 3109 3566 3000 3739 
Q 2891 3913 2687 3977 
Q 2484 4041 1991 4041 
L 1075 4041 
L 1075 2656 
z
M 1075 541 
L 2216 541 
Q 2509 541 2628 563 
Q 2838 600 2978 687 
Q 3119 775 3209 942 
Q 3300 1109 3300 1328 
Q 3300 1584 3169 1773 
Q 3038 1963 2805 2039 
Q 2572 2116 2134 2116 
L 1075 2116 
L 1075 541 
z
" transform="scale(0.015625)"/>
       <path id="ArialMT-41" d="M -9 0 
L 1750 4581 
L 2403 4581 
L 4278 0 
L 3588 0 
L 3053 1388 
L 1138 1388 
L 634 0 
L -9 0 
z
M 1313 1881 
L 2866 1881 
L 2388 3150 
Q 2169 3728 2063 4100 
Q 1975 3659 1816 3225 
L 1313 1881 
z
" transform="scale(0.015625)"/>
      </defs>
      <use xlink:href="#ArialMT-47"/>
      <use xlink:href="#ArialMT-4c" transform="translate(77.783203 0)"/>
      <use xlink:href="#ArialMT-4f" transform="translate(133.398438 0)"/>
      <use xlink:href="#ArialMT-42" transform="translate(211.181641 0)"/>
      <use xlink:href="#ArialMT-41" transform="translate(277.880859 0)"/>
      <use xlink:href="#ArialMT-4c" transform="translate(344.580078 0)"/>
     </g>
    </g>
    <g id="patch_16">
     <path d="M 463.929375 111.214687 
L 493.929375 111.214687 
L 493.929375 100.714687 
L 463.929375 100.714687 
z
" style="fill: #bb9832; opacity: 0.8"/>
    </g>
    <g id="text_17">
     <!-- LOCAL -->
     <g style="fill: #262626" transform="translate(505.929375 111.214687) scale(0.15 -0.15)">
      <defs>
       <path id="ArialMT-43" d="M 3763 1606 
L 4369 1453 
Q 4178 706 3683 314 
Q 3188 -78 2472 -78 
Q 1731 -78 1267 223 
Q 803 525 561 1097 
Q 319 1669 319 2325 
Q 319 3041 592 3573 
Q 866 4106 1370 4382 
Q 1875 4659 2481 4659 
Q 3169 4659 3637 4309 
Q 4106 3959 4291 3325 
L 3694 3184 
Q 3534 3684 3231 3912 
Q 2928 4141 2469 4141 
Q 1941 4141 1586 3887 
Q 1231 3634 1087 3207 
Q 944 2781 944 2328 
Q 944 1744 1114 1308 
Q 1284 872 1643 656 
Q 2003 441 2422 441 
Q 2931 441 3284 734 
Q 3638 1028 3763 1606 
z
" transform="scale(0.015625)"/>
      </defs>
      <use xlink:href="#ArialMT-4c"/>
      <use xlink:href="#ArialMT-4f" transform="translate(55.615234 0)"/>
      <use xlink:href="#ArialMT-43" transform="translate(133.398438 0)"/>
      <use xlink:href="#ArialMT-41" transform="translate(205.615234 0)"/>
      <use xlink:href="#ArialMT-4c" transform="translate(272.314453 0)"/>
     </g>
    </g>
   </g>
  </g>
  <g id="axes_2">
   <g id="patch_17">
    <path d="M 637.6725 397.32 
L 1137.3675 397.32 
L 1137.3675 65.76 
L 637.6725 65.76 
z
" style="fill: #ffffff"/>
   </g>
   <g id="matplotlib.axis_3">
    <g id="xtick_4">
     <g id="line2d_30">
      <path d="M 725.281364 397.32 
L 725.281364 65.76 
" clip-path="url(#p4cc3424956)" style="fill: none; stroke: #cccccc; stroke-width: 0.8; stroke-linecap: round"/>
     </g>
     <g id="line2d_31"/>
     <g id="text_18">
      <!-- 1.0 -->
      <g style="fill: #262626" transform="translate(714.856364 411.556719) scale(0.15 -0.15)">
       <use xlink:href="#ArialMT-31"/>
       <use xlink:href="#ArialMT-2e" transform="translate(55.615234 0)"/>
       <use xlink:href="#ArialMT-30" transform="translate(83.398438 0)"/>
      </g>
     </g>
    </g>
    <g id="xtick_5">
     <g id="line2d_32">
      <path d="M 887.52 397.32 
L 887.52 65.76 
" clip-path="url(#p4cc3424956)" style="fill: none; stroke: #cccccc; stroke-width: 0.8; stroke-linecap: round"/>
     </g>
     <g id="line2d_33"/>
     <g id="text_19">
      <!-- 1.1 -->
      <g style="fill: #262626" transform="translate(877.095 411.556719) scale(0.15 -0.15)">
       <use xlink:href="#ArialMT-31"/>
       <use xlink:href="#ArialMT-2e" transform="translate(55.615234 0)"/>
       <use xlink:href="#ArialMT-31" transform="translate(83.398438 0)"/>
      </g>
     </g>
    </g>
    <g id="xtick_6">
     <g id="line2d_34">
      <path d="M 1049.758636 397.32 
L 1049.758636 65.76 
" clip-path="url(#p4cc3424956)" style="fill: none; stroke: #cccccc; stroke-width: 0.8; stroke-linecap: round"/>
     </g>
     <g id="line2d_35"/>
     <g id="text_20">
      <!-- 1.2 -->
      <g style="fill: #262626" transform="translate(1039.333636 411.556719) scale(0.15 -0.15)">
       <use xlink:href="#ArialMT-31"/>
       <use xlink:href="#ArialMT-2e" transform="translate(55.615234 0)"/>
       <use xlink:href="#ArialMT-32" transform="translate(83.398438 0)"/>
      </g>
     </g>
    </g>
    <g id="text_21">
     <!-- Communication Noise Multiplier -->
     <g style="fill: #262626" transform="translate(734.740312 433.097344) scale(0.2 -0.2)">
      <use xlink:href="#Arial-BoldMT-43"/>
      <use xlink:href="#Arial-BoldMT-6f" transform="translate(72.216797 0)"/>
      <use xlink:href="#Arial-BoldMT-6d" transform="translate(133.300781 0)"/>
      <use xlink:href="#Arial-BoldMT-6d" transform="translate(222.216797 0)"/>
      <use xlink:href="#Arial-BoldMT-75" transform="translate(311.132812 0)"/>
      <use xlink:href="#Arial-BoldMT-6e" transform="translate(372.216797 0)"/>
      <use xlink:href="#Arial-BoldMT-69" transform="translate(433.300781 0)"/>
      <use xlink:href="#Arial-BoldMT-63" transform="translate(461.083984 0)"/>
      <use xlink:href="#Arial-BoldMT-61" transform="translate(516.699219 0)"/>
      <use xlink:href="#Arial-BoldMT-74" transform="translate(572.314453 0)"/>
      <use xlink:href="#Arial-BoldMT-69" transform="translate(605.615234 0)"/>
      <use xlink:href="#Arial-BoldMT-6f" transform="translate(633.398438 0)"/>
      <use xlink:href="#Arial-BoldMT-6e" transform="translate(694.482422 0)"/>
      <use xlink:href="#Arial-BoldMT-20" transform="translate(755.566406 0)"/>
      <use xlink:href="#Arial-BoldMT-4e" transform="translate(783.349609 0)"/>
      <use xlink:href="#Arial-BoldMT-6f" transform="translate(855.566406 0)"/>
      <use xlink:href="#Arial-BoldMT-69" transform="translate(916.650391 0)"/>
      <use xlink:href="#Arial-BoldMT-73" transform="translate(944.433594 0)"/>
      <use xlink:href="#Arial-BoldMT-65" transform="translate(1000.048828 0)"/>
      <use xlink:href="#Arial-BoldMT-20" transform="translate(1055.664062 0)"/>
      <use xlink:href="#Arial-BoldMT-4d" transform="translate(1083.447266 0)"/>
      <use xlink:href="#Arial-BoldMT-75" transform="translate(1166.748047 0)"/>
      <use xlink:href="#Arial-BoldMT-6c" transform="translate(1227.832031 0)"/>
      <use xlink:href="#Arial-BoldMT-74" transform="translate(1255.615234 0)"/>
      <use xlink:href="#Arial-BoldMT-69" transform="translate(1288.916016 0)"/>
      <use xlink:href="#Arial-BoldMT-70" transform="translate(1316.699219 0)"/>
      <use xlink:href="#Arial-BoldMT-6c" transform="translate(1377.783203 0)"/>
      <use xlink:href="#Arial-BoldMT-69" transform="translate(1405.566406 0)"/>
      <use xlink:href="#Arial-BoldMT-65" transform="translate(1433.349609 0)"/>
      <use xlink:href="#Arial-BoldMT-72" transform="translate(1488.964844 0)"/>
     </g>
    </g>
   </g>
   <g id="matplotlib.axis_4">
    <g id="ytick_10">
     <g id="line2d_36">
      <path d="M 637.6725 397.32 
L 1137.3675 397.32 
" clip-path="url(#p4cc3424956)" style="fill: none; stroke: #cccccc; stroke-opacity: 0.3; stroke-width: 0.8; stroke-linecap: round"/>
     </g>
     <g id="line2d_37"/>
     <g id="text_22">
      <!-- 0.0 -->
      <g style="fill: #262626" transform="translate(613.3225 402.688359) scale(0.15 -0.15)">
       <use xlink:href="#ArialMT-30"/>
       <use xlink:href="#ArialMT-2e" transform="translate(55.615234 0)"/>
       <use xlink:href="#ArialMT-30" transform="translate(83.398438 0)"/>
      </g>
     </g>
    </g>
    <g id="ytick_11">
     <g id="line2d_38">
      <path d="M 637.6725 333.33089 
L 1137.3675 333.33089 
" clip-path="url(#p4cc3424956)" style="fill: none; stroke: #cccccc; stroke-opacity: 0.3; stroke-width: 0.8; stroke-linecap: round"/>
     </g>
     <g id="line2d_39"/>
     <g id="text_23">
      <!-- 0.1 -->
      <g style="fill: #262626" transform="translate(613.3225 338.699249) scale(0.15 -0.15)">
       <use xlink:href="#ArialMT-30"/>
       <use xlink:href="#ArialMT-2e" transform="translate(55.615234 0)"/>
       <use xlink:href="#ArialMT-31" transform="translate(83.398438 0)"/>
      </g>
     </g>
    </g>
    <g id="ytick_12">
     <g id="line2d_40">
      <path d="M 637.6725 269.34178 
L 1137.3675 269.34178 
" clip-path="url(#p4cc3424956)" style="fill: none; stroke: #cccccc; stroke-opacity: 0.3; stroke-width: 0.8; stroke-linecap: round"/>
     </g>
     <g id="line2d_41"/>
     <g id="text_24">
      <!-- 0.2 -->
      <g style="fill: #262626" transform="translate(613.3225 274.710139) scale(0.15 -0.15)">
       <use xlink:href="#ArialMT-30"/>
       <use xlink:href="#ArialMT-2e" transform="translate(55.615234 0)"/>
       <use xlink:href="#ArialMT-32" transform="translate(83.398438 0)"/>
      </g>
     </g>
    </g>
    <g id="ytick_13">
     <g id="line2d_42">
      <path d="M 637.6725 205.352669 
L 1137.3675 205.352669 
" clip-path="url(#p4cc3424956)" style="fill: none; stroke: #cccccc; stroke-opacity: 0.3; stroke-width: 0.8; stroke-linecap: round"/>
     </g>
     <g id="line2d_43"/>
     <g id="text_25">
      <!-- 0.3 -->
      <g style="fill: #262626" transform="translate(613.3225 210.721029) scale(0.15 -0.15)">
       <defs>
        <path id="ArialMT-33" d="M 269 1209 
L 831 1284 
Q 928 806 1161 595 
Q 1394 384 1728 384 
Q 2125 384 2398 659 
Q 2672 934 2672 1341 
Q 2672 1728 2419 1979 
Q 2166 2231 1775 2231 
Q 1616 2231 1378 2169 
L 1441 2663 
Q 1497 2656 1531 2656 
Q 1891 2656 2178 2843 
Q 2466 3031 2466 3422 
Q 2466 3731 2256 3934 
Q 2047 4138 1716 4138 
Q 1388 4138 1169 3931 
Q 950 3725 888 3313 
L 325 3413 
Q 428 3978 793 4289 
Q 1159 4600 1703 4600 
Q 2078 4600 2393 4439 
Q 2709 4278 2876 4000 
Q 3044 3722 3044 3409 
Q 3044 3113 2884 2869 
Q 2725 2625 2413 2481 
Q 2819 2388 3044 2092 
Q 3269 1797 3269 1353 
Q 3269 753 2831 336 
Q 2394 -81 1725 -81 
Q 1122 -81 723 278 
Q 325 638 269 1209 
z
" transform="scale(0.015625)"/>
       </defs>
       <use xlink:href="#ArialMT-30"/>
       <use xlink:href="#ArialMT-2e" transform="translate(55.615234 0)"/>
       <use xlink:href="#ArialMT-33" transform="translate(83.398438 0)"/>
      </g>
     </g>
    </g>
    <g id="ytick_14">
     <g id="line2d_44">
      <path d="M 637.6725 141.363559 
L 1137.3675 141.363559 
" clip-path="url(#p4cc3424956)" style="fill: none; stroke: #cccccc; stroke-opacity: 0.3; stroke-width: 0.8; stroke-linecap: round"/>
     </g>
     <g id="line2d_45"/>
     <g id="text_26">
      <!-- 0.4 -->
      <g style="fill: #262626" transform="translate(613.3225 146.731919) scale(0.15 -0.15)">
       <defs>
        <path id="ArialMT-34" d="M 2069 0 
L 2069 1097 
L 81 1097 
L 81 1613 
L 2172 4581 
L 2631 4581 
L 2631 1613 
L 3250 1613 
L 3250 1097 
L 2631 1097 
L 2631 0 
L 2069 0 
z
M 2069 1613 
L 2069 3678 
L 634 1613 
L 2069 1613 
z
" transform="scale(0.015625)"/>
       </defs>
       <use xlink:href="#ArialMT-30"/>
       <use xlink:href="#ArialMT-2e" transform="translate(55.615234 0)"/>
       <use xlink:href="#ArialMT-34" transform="translate(83.398438 0)"/>
      </g>
     </g>
    </g>
    <g id="ytick_15">
     <g id="line2d_46">
      <path d="M 637.6725 77.374449 
L 1137.3675 77.374449 
" clip-path="url(#p4cc3424956)" style="fill: none; stroke: #cccccc; stroke-opacity: 0.3; stroke-width: 0.8; stroke-linecap: round"/>
     </g>
     <g id="line2d_47"/>
     <g id="text_27">
      <!-- 0.5 -->
      <g style="fill: #262626" transform="translate(613.3225 82.742808) scale(0.15 -0.15)">
       <use xlink:href="#ArialMT-30"/>
       <use xlink:href="#ArialMT-2e" transform="translate(55.615234 0)"/>
       <use xlink:href="#ArialMT-35" transform="translate(83.398438 0)"/>
      </g>
     </g>
    </g>
    <g id="text_28">
     <!-- ZNE Error (Absolute) -->
     <g style="fill: #262626" transform="translate(605.113125 330.985312) rotate(-90) scale(0.2 -0.2)">
      <defs>
       <path id="Arial-BoldMT-5a" d="M 69 0 
L 69 834 
L 2475 3806 
L 341 3806 
L 341 4581 
L 3694 4581 
L 3694 3863 
L 1184 772 
L 3791 772 
L 3791 0 
L 69 0 
z
" transform="scale(0.015625)"/>
       <path id="Arial-BoldMT-41" d="M 4597 0 
L 3591 0 
L 3191 1041 
L 1359 1041 
L 981 0 
L 0 0 
L 1784 4581 
L 2763 4581 
L 4597 0 
z
M 2894 1813 
L 2263 3513 
L 1644 1813 
L 2894 1813 
z
" transform="scale(0.015625)"/>
       <path id="Arial-BoldMT-62" d="M 422 0 
L 422 4581 
L 1300 4581 
L 1300 2931 
Q 1706 3394 2263 3394 
Q 2869 3394 3266 2955 
Q 3663 2516 3663 1694 
Q 3663 844 3258 384 
Q 2853 -75 2275 -75 
Q 1991 -75 1714 67 
Q 1438 209 1238 488 
L 1238 0 
L 422 0 
z
M 1294 1731 
Q 1294 1216 1456 969 
Q 1684 619 2063 619 
Q 2353 619 2558 867 
Q 2763 1116 2763 1650 
Q 2763 2219 2556 2470 
Q 2350 2722 2028 2722 
Q 1713 2722 1503 2476 
Q 1294 2231 1294 1731 
z
" transform="scale(0.015625)"/>
      </defs>
      <use xlink:href="#Arial-BoldMT-5a"/>
      <use xlink:href="#Arial-BoldMT-4e" transform="translate(61.083984 0)"/>
      <use xlink:href="#Arial-BoldMT-45" transform="translate(133.300781 0)"/>
      <use xlink:href="#Arial-BoldMT-20" transform="translate(200 0)"/>
      <use xlink:href="#Arial-BoldMT-45" transform="translate(227.783203 0)"/>
      <use xlink:href="#Arial-BoldMT-72" transform="translate(294.482422 0)"/>
      <use xlink:href="#Arial-BoldMT-72" transform="translate(333.398438 0)"/>
      <use xlink:href="#Arial-BoldMT-6f" transform="translate(372.314453 0)"/>
      <use xlink:href="#Arial-BoldMT-72" transform="translate(433.398438 0)"/>
      <use xlink:href="#Arial-BoldMT-20" transform="translate(472.314453 0)"/>
      <use xlink:href="#Arial-BoldMT-28" transform="translate(500.097656 0)"/>
      <use xlink:href="#Arial-BoldMT-41" transform="translate(533.398438 0)"/>
      <use xlink:href="#Arial-BoldMT-62" transform="translate(605.615234 0)"/>
      <use xlink:href="#Arial-BoldMT-73" transform="translate(666.699219 0)"/>
      <use xlink:href="#Arial-BoldMT-6f" transform="translate(722.314453 0)"/>
      <use xlink:href="#Arial-BoldMT-6c" transform="translate(783.398438 0)"/>
      <use xlink:href="#Arial-BoldMT-75" transform="translate(811.181641 0)"/>
      <use xlink:href="#Arial-BoldMT-74" transform="translate(872.265625 0)"/>
      <use xlink:href="#Arial-BoldMT-65" transform="translate(905.566406 0)"/>
      <use xlink:href="#Arial-BoldMT-29" transform="translate(961.181641 0)"/>
     </g>
    </g>
   </g>
   <g id="patch_18">
    <path d="M 660.385909 397.32 
L 725.281364 397.32 
L 725.281364 155.39652 
L 660.385909 155.39652 
z
" clip-path="url(#p4cc3424956)" style="fill: #f77189; opacity: 0.8"/>
   </g>
   <g id="patch_19">
    <path d="M 822.624545 397.32 
L 887.52 397.32 
L 887.52 155.239093 
L 822.624545 155.239093 
z
" clip-path="url(#p4cc3424956)" style="fill: #f77189; opacity: 0.8"/>
   </g>
   <g id="patch_20">
    <path d="M 984.863182 397.32 
L 1049.758636 397.32 
L 1049.758636 141.479903 
L 984.863182 141.479903 
z
" clip-path="url(#p4cc3424956)" style="fill: #f77189; opacity: 0.8"/>
   </g>
   <g id="patch_21">
    <path d="M 725.281364 397.32 
L 790.176818 397.32 
L 790.176818 100.293424 
L 725.281364 100.293424 
z
" clip-path="url(#p4cc3424956)" style="fill: #bb9832; opacity: 0.8"/>
   </g>
   <g id="patch_22">
    <path d="M 887.52 397.32 
L 952.415455 397.32 
L 952.415455 92.550718 
L 887.52 92.550718 
z
" clip-path="url(#p4cc3424956)" style="fill: #bb9832; opacity: 0.8"/>
   </g>
   <g id="patch_23">
    <path d="M 1049.758636 397.32 
L 1114.654091 397.32 
L 1114.654091 99.161137 
L 1049.758636 99.161137 
z
" clip-path="url(#p4cc3424956)" style="fill: #bb9832; opacity: 0.8"/>
   </g>
   <g id="LineCollection_3">
    <path d="M 692.833636 186.661086 
L 692.833636 124.131953 
" clip-path="url(#p4cc3424956)" style="fill: none; stroke: #000000; stroke-width: 1.5"/>
    <path d="M 855.072273 187.337676 
L 855.072273 123.140509 
" clip-path="url(#p4cc3424956)" style="fill: none; stroke: #000000; stroke-width: 1.5"/>
    <path d="M 1017.310909 175.047556 
L 1017.310909 107.91225 
" clip-path="url(#p4cc3424956)" style="fill: none; stroke: #000000; stroke-width: 1.5"/>
   </g>
   <g id="line2d_48">
    <g clip-path="url(#p4cc3424956)">
     <use xlink:href="#mcf544dc644" x="692.833636" y="186.661086" style="fill: #f77189; stroke: #000000"/>
     <use xlink:href="#mcf544dc644" x="855.072273" y="187.337676" style="fill: #f77189; stroke: #000000"/>
     <use xlink:href="#mcf544dc644" x="1017.310909" y="175.047556" style="fill: #f77189; stroke: #000000"/>
    </g>
   </g>
   <g id="line2d_49">
    <g clip-path="url(#p4cc3424956)">
     <use xlink:href="#mcf544dc644" x="692.833636" y="124.131953" style="fill: #f77189; stroke: #000000"/>
     <use xlink:href="#mcf544dc644" x="855.072273" y="123.140509" style="fill: #f77189; stroke: #000000"/>
     <use xlink:href="#mcf544dc644" x="1017.310909" y="107.91225" style="fill: #f77189; stroke: #000000"/>
    </g>
   </g>
   <g id="LineCollection_4">
    <path d="M 757.729091 111.011542 
L 757.729091 89.575307 
" clip-path="url(#p4cc3424956)" style="fill: none; stroke: #000000; stroke-width: 1.5"/>
    <path d="M 919.967727 103.552865 
L 919.967727 81.548571 
" clip-path="url(#p4cc3424956)" style="fill: none; stroke: #000000; stroke-width: 1.5"/>
    <path d="M 1082.206364 109.828115 
L 1082.206364 88.494159 
" clip-path="url(#p4cc3424956)" style="fill: none; stroke: #000000; stroke-width: 1.5"/>
   </g>
   <g id="line2d_50">
    <g clip-path="url(#p4cc3424956)">
     <use xlink:href="#mcf544dc644" x="757.729091" y="111.011542" style="fill: #f77189; stroke: #000000"/>
     <use xlink:href="#mcf544dc644" x="919.967727" y="103.552865" style="fill: #f77189; stroke: #000000"/>
     <use xlink:href="#mcf544dc644" x="1082.206364" y="109.828115" style="fill: #f77189; stroke: #000000"/>
    </g>
   </g>
   <g id="line2d_51">
    <g clip-path="url(#p4cc3424956)">
     <use xlink:href="#mcf544dc644" x="757.729091" y="89.575307" style="fill: #f77189; stroke: #000000"/>
     <use xlink:href="#mcf544dc644" x="919.967727" y="81.548571" style="fill: #f77189; stroke: #000000"/>
     <use xlink:href="#mcf544dc644" x="1082.206364" y="88.494159" style="fill: #f77189; stroke: #000000"/>
    </g>
   </g>
   <g id="patch_24">
    <path d="M 637.6725 397.32 
L 637.6725 65.76 
" style="fill: none; stroke: #cccccc; stroke-linejoin: miter; stroke-linecap: square"/>
   </g>
   <g id="patch_25">
    <path d="M 1137.3675 397.32 
L 1137.3675 65.76 
" style="fill: none; stroke: #cccccc; stroke-linejoin: miter; stroke-linecap: square"/>
   </g>
   <g id="patch_26">
    <path d="M 637.6725 397.32 
L 1137.3675 397.32 
" style="fill: none; stroke: #cccccc; stroke-linejoin: miter; stroke-linecap: square"/>
   </g>
   <g id="patch_27">
    <path d="M 637.6725 65.76 
L 1137.3675 65.76 
" style="fill: none; stroke: #cccccc; stroke-linejoin: miter; stroke-linecap: square"/>
   </g>
   <g id="text_29">
    <!-- (b) Absolute Final Error -->
    <g style="fill: #262626" transform="translate(815.182109 59.76) scale(0.13 -0.13)">
     <defs>
      <path id="Arial-BoldMT-46" d="M 472 0 
L 472 4581 
L 3613 4581 
L 3613 3806 
L 1397 3806 
L 1397 2722 
L 3309 2722 
L 3309 1947 
L 1397 1947 
L 1397 0 
L 472 0 
z
" transform="scale(0.015625)"/>
     </defs>
     <use xlink:href="#Arial-BoldMT-28"/>
     <use xlink:href="#Arial-BoldMT-62" transform="translate(33.300781 0)"/>
     <use xlink:href="#Arial-BoldMT-29" transform="translate(94.384766 0)"/>
     <use xlink:href="#Arial-BoldMT-20" transform="translate(127.685547 0)"/>
     <use xlink:href="#Arial-BoldMT-41" transform="translate(151.71875 0)"/>
     <use xlink:href="#Arial-BoldMT-62" transform="translate(223.935547 0)"/>
     <use xlink:href="#Arial-BoldMT-73" transform="translate(285.019531 0)"/>
     <use xlink:href="#Arial-BoldMT-6f" transform="translate(340.634766 0)"/>
     <use xlink:href="#Arial-BoldMT-6c" transform="translate(401.71875 0)"/>
     <use xlink:href="#Arial-BoldMT-75" transform="translate(429.501953 0)"/>
     <use xlink:href="#Arial-BoldMT-74" transform="translate(490.585938 0)"/>
     <use xlink:href="#Arial-BoldMT-65" transform="translate(523.886719 0)"/>
     <use xlink:href="#Arial-BoldMT-20" transform="translate(579.501953 0)"/>
     <use xlink:href="#Arial-BoldMT-46" transform="translate(607.285156 0)"/>
     <use xlink:href="#Arial-BoldMT-69" transform="translate(668.369141 0)"/>
     <use xlink:href="#Arial-BoldMT-6e" transform="translate(696.152344 0)"/>
     <use xlink:href="#Arial-BoldMT-61" transform="translate(757.236328 0)"/>
     <use xlink:href="#Arial-BoldMT-6c" transform="translate(812.851562 0)"/>
     <use xlink:href="#Arial-BoldMT-20" transform="translate(840.634766 0)"/>
     <use xlink:href="#Arial-BoldMT-45" transform="translate(868.417969 0)"/>
     <use xlink:href="#Arial-BoldMT-72" transform="translate(935.117188 0)"/>
     <use xlink:href="#Arial-BoldMT-72" transform="translate(974.033203 0)"/>
     <use xlink:href="#Arial-BoldMT-6f" transform="translate(1012.949219 0)"/>
     <use xlink:href="#Arial-BoldMT-72" transform="translate(1074.033203 0)"/>
    </g>
   </g>
   <g id="legend_2">
    <g id="patch_28">
     <path d="M 650.1725 391.82 
L 758.200625 391.82 
Q 761.200625 391.82 761.200625 388.82 
L 761.200625 347.884062 
Q 761.200625 344.884062 758.200625 344.884062 
L 650.1725 344.884062 
Q 647.1725 344.884062 647.1725 347.884062 
L 647.1725 388.82 
Q 647.1725 391.82 650.1725 391.82 
z
" style="fill: #4d4d4d; opacity: 0.5; stroke: #4d4d4d; stroke-linejoin: miter"/>
    </g>
    <g id="patch_29">
     <path d="M 648.1725 389.82 
L 756.200625 389.82 
Q 759.200625 389.82 759.200625 386.82 
L 759.200625 345.884062 
Q 759.200625 342.884062 756.200625 342.884062 
L 648.1725 342.884062 
Q 645.1725 342.884062 645.1725 345.884062 
L 645.1725 386.82 
Q 645.1725 389.82 648.1725 389.82 
z
" style="fill: #ffffff; stroke: #cccccc; stroke-linejoin: miter"/>
    </g>
    <g id="patch_30">
     <path d="M 651.1725 359.620781 
L 681.1725 359.620781 
L 681.1725 349.120781 
L 651.1725 349.120781 
z
" style="fill: #f77189; opacity: 0.8"/>
    </g>
    <g id="text_30">
     <!-- GLOBAL -->
     <g style="fill: #262626" transform="translate(693.1725 359.620781) scale(0.15 -0.15)">
      <use xlink:href="#ArialMT-47"/>
      <use xlink:href="#ArialMT-4c" transform="translate(77.783203 0)"/>
      <use xlink:href="#ArialMT-4f" transform="translate(133.398438 0)"/>
      <use xlink:href="#ArialMT-42" transform="translate(211.181641 0)"/>
      <use xlink:href="#ArialMT-41" transform="translate(277.880859 0)"/>
      <use xlink:href="#ArialMT-4c" transform="translate(344.580078 0)"/>
     </g>
    </g>
    <g id="patch_31">
     <path d="M 651.1725 380.83875 
L 681.1725 380.83875 
L 681.1725 370.33875 
L 651.1725 370.33875 
z
" style="fill: #bb9832; opacity: 0.8"/>
    </g>
    <g id="text_31">
     <!-- LOCAL -->
     <g style="fill: #262626" transform="translate(693.1725 380.83875) scale(0.15 -0.15)">
      <use xlink:href="#ArialMT-4c"/>
      <use xlink:href="#ArialMT-4f" transform="translate(55.615234 0)"/>
      <use xlink:href="#ArialMT-43" transform="translate(133.398438 0)"/>
      <use xlink:href="#ArialMT-41" transform="translate(205.615234 0)"/>
      <use xlink:href="#ArialMT-4c" transform="translate(272.314453 0)"/>
     </g>
    </g>
   </g>
  </g>
  <g id="text_32">
   <!-- Network Noise Performance: Relative vs Absolute Metrics -->
   <g style="fill: #262626" transform="translate(379.876406 17.220937) scale(0.14 -0.14)">
    <defs>
     <path id="Arial-BoldMT-77" d="M 1078 0 
L 28 3319 
L 881 3319 
L 1503 1144 
L 2075 3319 
L 2922 3319 
L 3475 1144 
L 4109 3319 
L 4975 3319 
L 3909 0 
L 3066 0 
L 2494 2134 
L 1931 0 
L 1078 0 
z
" transform="scale(0.015625)"/>
     <path id="Arial-BoldMT-6b" d="M 428 0 
L 428 4581 
L 1306 4581 
L 1306 2150 
L 2334 3319 
L 3416 3319 
L 2281 2106 
L 3497 0 
L 2550 0 
L 1716 1491 
L 1306 1063 
L 1306 0 
L 428 0 
z
" transform="scale(0.015625)"/>
     <path id="Arial-BoldMT-50" d="M 466 0 
L 466 4581 
L 1950 4581 
Q 2794 4581 3050 4513 
Q 3444 4409 3709 4064 
Q 3975 3719 3975 3172 
Q 3975 2750 3822 2462 
Q 3669 2175 3433 2011 
Q 3197 1847 2953 1794 
Q 2622 1728 1994 1728 
L 1391 1728 
L 1391 0 
L 466 0 
z
M 1391 3806 
L 1391 2506 
L 1897 2506 
Q 2444 2506 2628 2578 
Q 2813 2650 2917 2803 
Q 3022 2956 3022 3159 
Q 3022 3409 2875 3571 
Q 2728 3734 2503 3775 
Q 2338 3806 1838 3806 
L 1391 3806 
z
" transform="scale(0.015625)"/>
     <path id="Arial-BoldMT-66" d="M 75 3319 
L 563 3319 
L 563 3569 
Q 563 3988 652 4194 
Q 741 4400 980 4529 
Q 1219 4659 1584 4659 
Q 1959 4659 2319 4547 
L 2200 3934 
Q 1991 3984 1797 3984 
Q 1606 3984 1523 3895 
Q 1441 3806 1441 3553 
L 1441 3319 
L 2097 3319 
L 2097 2628 
L 1441 2628 
L 1441 0 
L 563 0 
L 563 2628 
L 75 2628 
L 75 3319 
z
" transform="scale(0.015625)"/>
     <path id="Arial-BoldMT-3a" d="M 628 2441 
L 628 3319 
L 1506 3319 
L 1506 2441 
L 628 2441 
z
M 628 0 
L 628 878 
L 1506 878 
L 1506 0 
L 628 0 
z
" transform="scale(0.015625)"/>
    </defs>
    <use xlink:href="#Arial-BoldMT-4e"/>
    <use xlink:href="#Arial-BoldMT-65" transform="translate(72.216797 0)"/>
    <use xlink:href="#Arial-BoldMT-74" transform="translate(127.832031 0)"/>
    <use xlink:href="#Arial-BoldMT-77" transform="translate(161.132812 0)"/>
    <use xlink:href="#Arial-BoldMT-6f" transform="translate(238.916016 0)"/>
    <use xlink:href="#Arial-BoldMT-72" transform="translate(300 0)"/>
    <use xlink:href="#Arial-BoldMT-6b" transform="translate(338.916016 0)"/>
    <use xlink:href="#Arial-BoldMT-20" transform="translate(394.53125 0)"/>
    <use xlink:href="#Arial-BoldMT-4e" transform="translate(422.314453 0)"/>
    <use xlink:href="#Arial-BoldMT-6f" transform="translate(494.53125 0)"/>
    <use xlink:href="#Arial-BoldMT-69" transform="translate(555.615234 0)"/>
    <use xlink:href="#Arial-BoldMT-73" transform="translate(583.398438 0)"/>
    <use xlink:href="#Arial-BoldMT-65" transform="translate(639.013672 0)"/>
    <use xlink:href="#Arial-BoldMT-20" transform="translate(694.628906 0)"/>
    <use xlink:href="#Arial-BoldMT-50" transform="translate(722.412109 0)"/>
    <use xlink:href="#Arial-BoldMT-65" transform="translate(789.111328 0)"/>
    <use xlink:href="#Arial-BoldMT-72" transform="translate(844.726562 0)"/>
    <use xlink:href="#Arial-BoldMT-66" transform="translate(883.642578 0)"/>
    <use xlink:href="#Arial-BoldMT-6f" transform="translate(916.943359 0)"/>
    <use xlink:href="#Arial-BoldMT-72" transform="translate(978.027344 0)"/>
    <use xlink:href="#Arial-BoldMT-6d" transform="translate(1016.943359 0)"/>
    <use xlink:href="#Arial-BoldMT-61" transform="translate(1105.859375 0)"/>
    <use xlink:href="#Arial-BoldMT-6e" transform="translate(1161.474609 0)"/>
    <use xlink:href="#Arial-BoldMT-63" transform="translate(1222.558594 0)"/>
    <use xlink:href="#Arial-BoldMT-65" transform="translate(1278.173828 0)"/>
    <use xlink:href="#Arial-BoldMT-3a" transform="translate(1333.789062 0)"/>
    <use xlink:href="#Arial-BoldMT-20" transform="translate(1367.089844 0)"/>
    <use xlink:href="#Arial-BoldMT-52" transform="translate(1394.873047 0)"/>
    <use xlink:href="#Arial-BoldMT-65" transform="translate(1467.089844 0)"/>
    <use xlink:href="#Arial-BoldMT-6c" transform="translate(1522.705078 0)"/>
    <use xlink:href="#Arial-BoldMT-61" transform="translate(1550.488281 0)"/>
    <use xlink:href="#Arial-BoldMT-74" transform="translate(1606.103516 0)"/>
    <use xlink:href="#Arial-BoldMT-69" transform="translate(1639.404297 0)"/>
    <use xlink:href="#Arial-BoldMT-76" transform="translate(1667.1875 0)"/>
    <use xlink:href="#Arial-BoldMT-65" transform="translate(1722.802734 0)"/>
    <use xlink:href="#Arial-BoldMT-20" transform="translate(1778.417969 0)"/>
    <use xlink:href="#Arial-BoldMT-76" transform="translate(1806.201172 0)"/>
    <use xlink:href="#Arial-BoldMT-73" transform="translate(1861.816406 0)"/>
    <use xlink:href="#Arial-BoldMT-20" transform="translate(1917.431641 0)"/>
    <use xlink:href="#Arial-BoldMT-41" transform="translate(1941.464844 0)"/>
    <use xlink:href="#Arial-BoldMT-62" transform="translate(2013.681641 0)"/>
    <use xlink:href="#Arial-BoldMT-73" transform="translate(2074.765625 0)"/>
    <use xlink:href="#Arial-BoldMT-6f" transform="translate(2130.380859 0)"/>
    <use xlink:href="#Arial-BoldMT-6c" transform="translate(2191.464844 0)"/>
    <use xlink:href="#Arial-BoldMT-75" transform="translate(2219.248047 0)"/>
    <use xlink:href="#Arial-BoldMT-74" transform="translate(2280.332031 0)"/>
    <use xlink:href="#Arial-BoldMT-65" transform="translate(2313.632812 0)"/>
    <use xlink:href="#Arial-BoldMT-20" transform="translate(2369.248047 0)"/>
    <use xlink:href="#Arial-BoldMT-4d" transform="translate(2397.03125 0)"/>
    <use xlink:href="#Arial-BoldMT-65" transform="translate(2480.332031 0)"/>
    <use xlink:href="#Arial-BoldMT-74" transform="translate(2535.947266 0)"/>
    <use xlink:href="#Arial-BoldMT-72" transform="translate(2569.248047 0)"/>
    <use xlink:href="#Arial-BoldMT-69" transform="translate(2608.164062 0)"/>
    <use xlink:href="#Arial-BoldMT-63" transform="translate(2635.947266 0)"/>
    <use xlink:href="#Arial-BoldMT-73" transform="translate(2691.5625 0)"/>
   </g>
  </g>
 </g>
 <defs>
  <clipPath id="pf80ff30078">
   <rect x="79.7625" y="65.76" width="499.695" height="331.56"/>
  </clipPath>
  <clipPath id="p4cc3424956">
   <rect x="637.6725" y="65.76" width="499.695" height="331.56"/>
  </clipPath>
 </defs>
</svg>
