<?xml version="1.0" encoding="utf-8" standalone="no"?>
<!DOCTYPE svg PUBLIC "-//W3C//DTD SVG 1.1//EN"
  "http://www.w3.org/Graphics/SVG/1.1/DTD/svg11.dtd">
<svg xmlns:xlink="http://www.w3.org/1999/xlink" width="712.748437pt" height="424.740469pt" viewBox="0 0 712.748437 424.740469" xmlns="http://www.w3.org/2000/svg" version="1.1">
 <metadata>
  <rdf:RDF xmlns:dc="http://purl.org/dc/elements/1.1/" xmlns:cc="http://creativecommons.org/ns#" xmlns:rdf="http://www.w3.org/1999/02/22-rdf-syntax-ns#">
   <cc:Work>
    <dc:type rdf:resource="http://purl.org/dc/dcmitype/StillImage"/>
    <dc:date>2026-02-04T16:38:19.311316</dc:date>
    <dc:format>image/svg+xml</dc:format>
    <dc:creator>
     <cc:Agent>
      <dc:title>Matplotlib v3.10.8, https://matplotlib.org/</dc:title>
     </cc:Agent>
    </dc:creator>
   </cc:Work>
  </rdf:RDF>
 </metadata>
 <defs>
  <style type="text/css">*{stroke-linejoin: round; stroke-linecap: butt}</style>
 </defs>
 <g id="figure_1">
  <g id="patch_1">
   <path d="M 0 424.740469 
L 712.748437 424.740469 
L 712.748437 0 
L 0 0 
z
" style="fill: #ffffff"/>
  </g>
  <g id="axes_1">
   <g id="patch_2">
    <path d="M 62.573438 378.06 
L 705.548438 378.06 
L 705.548438 7.2 
L 62.573438 7.2 
z
" style="fill: #ffffff"/>
   </g>
   <g id="matplotlib.axis_1">
    <g id="xtick_1">
     <g id="line2d_1">
      <path d="M 140.509801 378.06 
L 140.509801 7.2 
" clip-path="url(#pf790709f65)" style="fill: none; stroke: #cccccc; stroke-width: 0.8; stroke-linecap: round"/>
     </g>
     <g id="line2d_2"/>
     <g id="text_1">
      <!-- 0.001 -->
      <g style="fill: #262626" transform="translate(121.743395 392.296719) scale(0.15 -0.15)">
       <defs>
        <path id="ArialMT-30" d="M 266 2259 
Q 266 3072 433 3567 
Q 600 4063 929 4331 
Q 1259 4600 1759 4600 
Q 2128 4600 2406 4451 
Q 2684 4303 2865 4023 
Q 3047 3744 3150 3342 
Q 3253 2941 3253 2259 
Q 3253 1453 3087 958 
Q 2922 463 2592 192 
Q 2263 -78 1759 -78 
Q 1097 -78 719 397 
Q 266 969 266 2259 
z
M 844 2259 
Q 844 1131 1108 757 
Q 1372 384 1759 384 
Q 2147 384 2411 759 
Q 2675 1134 2675 2259 
Q 2675 3391 2411 3762 
Q 2147 4134 1753 4134 
Q 1366 4134 1134 3806 
Q 844 3388 844 2259 
z
" transform="scale(0.015625)"/>
        <path id="ArialMT-2e" d="M 581 0 
L 581 641 
L 1222 641 
L 1222 0 
L 581 0 
z
" transform="scale(0.015625)"/>
        <path id="ArialMT-31" d="M 2384 0 
L 1822 0 
L 1822 3584 
Q 1619 3391 1289 3197 
Q 959 3003 697 2906 
L 697 3450 
Q 1169 3672 1522 3987 
Q 1875 4303 2022 4600 
L 2384 4600 
L 2384 0 
z
" transform="scale(0.015625)"/>
       </defs>
       <use xlink:href="#ArialMT-30"/>
       <use xlink:href="#ArialMT-2e" transform="translate(55.615234 0)"/>
       <use xlink:href="#ArialMT-30" transform="translate(83.398438 0)"/>
       <use xlink:href="#ArialMT-30" transform="translate(139.013672 0)"/>
       <use xlink:href="#ArialMT-31" transform="translate(194.628906 0)"/>
      </g>
     </g>
    </g>
    <g id="xtick_2">
     <g id="line2d_3">
      <path d="M 262.285369 378.06 
L 262.285369 7.2 
" clip-path="url(#pf790709f65)" style="fill: none; stroke: #cccccc; stroke-width: 0.8; stroke-linecap: round"/>
     </g>
     <g id="line2d_4"/>
     <g id="text_2">
      <!-- 0.005 -->
      <g style="fill: #262626" transform="translate(243.518963 392.296719) scale(0.15 -0.15)">
       <defs>
        <path id="ArialMT-35" d="M 266 1200 
L 856 1250 
Q 922 819 1161 601 
Q 1400 384 1738 384 
Q 2144 384 2425 690 
Q 2706 997 2706 1503 
Q 2706 1984 2436 2262 
Q 2166 2541 1728 2541 
Q 1456 2541 1237 2417 
Q 1019 2294 894 2097 
L 366 2166 
L 809 4519 
L 3088 4519 
L 3088 3981 
L 1259 3981 
L 1013 2750 
Q 1425 3038 1878 3038 
Q 2478 3038 2890 2622 
Q 3303 2206 3303 1553 
Q 3303 931 2941 478 
Q 2500 -78 1738 -78 
Q 1113 -78 717 272 
Q 322 622 266 1200 
z
" transform="scale(0.015625)"/>
       </defs>
       <use xlink:href="#ArialMT-30"/>
       <use xlink:href="#ArialMT-2e" transform="translate(55.615234 0)"/>
       <use xlink:href="#ArialMT-30" transform="translate(83.398438 0)"/>
       <use xlink:href="#ArialMT-30" transform="translate(139.013672 0)"/>
       <use xlink:href="#ArialMT-35" transform="translate(194.628906 0)"/>
      </g>
     </g>
    </g>
    <g id="xtick_3">
     <g id="line2d_5">
      <path d="M 384.060938 378.06 
L 384.060938 7.2 
" clip-path="url(#pf790709f65)" style="fill: none; stroke: #cccccc; stroke-width: 0.8; stroke-linecap: round"/>
     </g>
     <g id="line2d_6"/>
     <g id="text_3">
      <!-- 0.010 -->
      <g style="fill: #262626" transform="translate(365.294531 392.296719) scale(0.15 -0.15)">
       <use xlink:href="#ArialMT-30"/>
       <use xlink:href="#ArialMT-2e" transform="translate(55.615234 0)"/>
       <use xlink:href="#ArialMT-30" transform="translate(83.398438 0)"/>
       <use xlink:href="#ArialMT-31" transform="translate(139.013672 0)"/>
       <use xlink:href="#ArialMT-30" transform="translate(194.628906 0)"/>
      </g>
     </g>
    </g>
    <g id="xtick_4">
     <g id="line2d_7">
      <path d="M 505.836506 378.06 
L 505.836506 7.2 
" clip-path="url(#pf790709f65)" style="fill: none; stroke: #cccccc; stroke-width: 0.8; stroke-linecap: round"/>
     </g>
     <g id="line2d_8"/>
     <g id="text_4">
      <!-- 0.015 -->
      <g style="fill: #262626" transform="translate(487.070099 392.296719) scale(0.15 -0.15)">
       <use xlink:href="#ArialMT-30"/>
       <use xlink:href="#ArialMT-2e" transform="translate(55.615234 0)"/>
       <use xlink:href="#ArialMT-30" transform="translate(83.398438 0)"/>
       <use xlink:href="#ArialMT-31" transform="translate(139.013672 0)"/>
       <use xlink:href="#ArialMT-35" transform="translate(194.628906 0)"/>
      </g>
     </g>
    </g>
    <g id="xtick_5">
     <g id="line2d_9">
      <path d="M 627.612074 378.06 
L 627.612074 7.2 
" clip-path="url(#pf790709f65)" style="fill: none; stroke: #cccccc; stroke-width: 0.8; stroke-linecap: round"/>
     </g>
     <g id="line2d_10"/>
     <g id="text_5">
      <!-- 0.020 -->
      <g style="fill: #262626" transform="translate(608.845668 392.296719) scale(0.15 -0.15)">
       <defs>
        <path id="ArialMT-32" d="M 3222 541 
L 3222 0 
L 194 0 
Q 188 203 259 391 
Q 375 700 629 1000 
Q 884 1300 1366 1694 
Q 2113 2306 2375 2664 
Q 2638 3022 2638 3341 
Q 2638 3675 2398 3904 
Q 2159 4134 1775 4134 
Q 1369 4134 1125 3890 
Q 881 3647 878 3216 
L 300 3275 
Q 359 3922 746 4261 
Q 1134 4600 1788 4600 
Q 2447 4600 2831 4234 
Q 3216 3869 3216 3328 
Q 3216 3053 3103 2787 
Q 2991 2522 2730 2228 
Q 2469 1934 1863 1422 
Q 1356 997 1212 845 
Q 1069 694 975 541 
L 3222 541 
z
" transform="scale(0.015625)"/>
       </defs>
       <use xlink:href="#ArialMT-30"/>
       <use xlink:href="#ArialMT-2e" transform="translate(55.615234 0)"/>
       <use xlink:href="#ArialMT-30" transform="translate(83.398438 0)"/>
       <use xlink:href="#ArialMT-32" transform="translate(139.013672 0)"/>
       <use xlink:href="#ArialMT-30" transform="translate(194.628906 0)"/>
      </g>
     </g>
    </g>
    <g id="text_6">
     <!-- Local Noise Level -->
     <g style="fill: #262626" transform="translate(299.590625 413.593594) scale(0.2 -0.2)">
      <defs>
       <path id="Arial-BoldMT-4c" d="M 491 0 
L 491 4544 
L 1416 4544 
L 1416 772 
L 3716 772 
L 3716 0 
L 491 0 
z
" transform="scale(0.015625)"/>
       <path id="Arial-BoldMT-6f" d="M 256 1706 
Q 256 2144 472 2553 
Q 688 2963 1083 3178 
Q 1478 3394 1966 3394 
Q 2719 3394 3200 2905 
Q 3681 2416 3681 1669 
Q 3681 916 3195 420 
Q 2709 -75 1972 -75 
Q 1516 -75 1102 131 
Q 688 338 472 736 
Q 256 1134 256 1706 
z
M 1156 1659 
Q 1156 1166 1390 903 
Q 1625 641 1969 641 
Q 2313 641 2545 903 
Q 2778 1166 2778 1666 
Q 2778 2153 2545 2415 
Q 2313 2678 1969 2678 
Q 1625 2678 1390 2415 
Q 1156 2153 1156 1659 
z
" transform="scale(0.015625)"/>
       <path id="Arial-BoldMT-63" d="M 3353 2338 
L 2488 2181 
Q 2444 2441 2289 2572 
Q 2134 2703 1888 2703 
Q 1559 2703 1364 2476 
Q 1169 2250 1169 1719 
Q 1169 1128 1367 884 
Q 1566 641 1900 641 
Q 2150 641 2309 783 
Q 2469 925 2534 1272 
L 3397 1125 
Q 3263 531 2881 228 
Q 2500 -75 1859 -75 
Q 1131 -75 698 384 
Q 266 844 266 1656 
Q 266 2478 700 2936 
Q 1134 3394 1875 3394 
Q 2481 3394 2839 3133 
Q 3197 2872 3353 2338 
z
" transform="scale(0.015625)"/>
       <path id="Arial-BoldMT-61" d="M 1116 2306 
L 319 2450 
Q 453 2931 781 3162 
Q 1109 3394 1756 3394 
Q 2344 3394 2631 3255 
Q 2919 3116 3036 2902 
Q 3153 2688 3153 2116 
L 3144 1091 
Q 3144 653 3186 445 
Q 3228 238 3344 0 
L 2475 0 
Q 2441 88 2391 259 
Q 2369 338 2359 363 
Q 2134 144 1878 34 
Q 1622 -75 1331 -75 
Q 819 -75 523 203 
Q 228 481 228 906 
Q 228 1188 362 1408 
Q 497 1628 739 1745 
Q 981 1863 1438 1950 
Q 2053 2066 2291 2166 
L 2291 2253 
Q 2291 2506 2166 2614 
Q 2041 2722 1694 2722 
Q 1459 2722 1328 2630 
Q 1197 2538 1116 2306 
z
M 2291 1594 
Q 2122 1538 1756 1459 
Q 1391 1381 1278 1306 
Q 1106 1184 1106 997 
Q 1106 813 1243 678 
Q 1381 544 1594 544 
Q 1831 544 2047 700 
Q 2206 819 2256 991 
Q 2291 1103 2291 1419 
L 2291 1594 
z
" transform="scale(0.015625)"/>
       <path id="Arial-BoldMT-6c" d="M 459 0 
L 459 4581 
L 1338 4581 
L 1338 0 
L 459 0 
z
" transform="scale(0.015625)"/>
       <path id="Arial-BoldMT-20" transform="scale(0.015625)"/>
       <path id="Arial-BoldMT-4e" d="M 475 0 
L 475 4581 
L 1375 4581 
L 3250 1522 
L 3250 4581 
L 4109 4581 
L 4109 0 
L 3181 0 
L 1334 2988 
L 1334 0 
L 475 0 
z
" transform="scale(0.015625)"/>
       <path id="Arial-BoldMT-69" d="M 459 3769 
L 459 4581 
L 1338 4581 
L 1338 3769 
L 459 3769 
z
M 459 0 
L 459 3319 
L 1338 3319 
L 1338 0 
L 459 0 
z
" transform="scale(0.015625)"/>
       <path id="Arial-BoldMT-73" d="M 150 947 
L 1031 1081 
Q 1088 825 1259 692 
Q 1431 559 1741 559 
Q 2081 559 2253 684 
Q 2369 772 2369 919 
Q 2369 1019 2306 1084 
Q 2241 1147 2013 1200 
Q 950 1434 666 1628 
Q 272 1897 272 2375 
Q 272 2806 612 3100 
Q 953 3394 1669 3394 
Q 2350 3394 2681 3172 
Q 3013 2950 3138 2516 
L 2309 2363 
Q 2256 2556 2107 2659 
Q 1959 2763 1684 2763 
Q 1338 2763 1188 2666 
Q 1088 2597 1088 2488 
Q 1088 2394 1175 2328 
Q 1294 2241 1995 2081 
Q 2697 1922 2975 1691 
Q 3250 1456 3250 1038 
Q 3250 581 2869 253 
Q 2488 -75 1741 -75 
Q 1063 -75 667 200 
Q 272 475 150 947 
z
" transform="scale(0.015625)"/>
       <path id="Arial-BoldMT-65" d="M 2381 1056 
L 3256 909 
Q 3088 428 2723 176 
Q 2359 -75 1813 -75 
Q 947 -75 531 491 
Q 203 944 203 1634 
Q 203 2459 634 2926 
Q 1066 3394 1725 3394 
Q 2466 3394 2894 2905 
Q 3322 2416 3303 1406 
L 1103 1406 
Q 1113 1016 1316 798 
Q 1519 581 1822 581 
Q 2028 581 2168 693 
Q 2309 806 2381 1056 
z
M 2431 1944 
Q 2422 2325 2234 2523 
Q 2047 2722 1778 2722 
Q 1491 2722 1303 2513 
Q 1116 2303 1119 1944 
L 2431 1944 
z
" transform="scale(0.015625)"/>
       <path id="Arial-BoldMT-76" d="M 1372 0 
L 34 3319 
L 956 3319 
L 1581 1625 
L 1763 1059 
Q 1834 1275 1853 1344 
Q 1897 1484 1947 1625 
L 2578 3319 
L 3481 3319 
L 2163 0 
L 1372 0 
z
" transform="scale(0.015625)"/>
      </defs>
      <use xlink:href="#Arial-BoldMT-4c"/>
      <use xlink:href="#Arial-BoldMT-6f" transform="translate(61.083984 0)"/>
      <use xlink:href="#Arial-BoldMT-63" transform="translate(122.167969 0)"/>
      <use xlink:href="#Arial-BoldMT-61" transform="translate(177.783203 0)"/>
      <use xlink:href="#Arial-BoldMT-6c" transform="translate(233.398438 0)"/>
      <use xlink:href="#Arial-BoldMT-20" transform="translate(261.181641 0)"/>
      <use xlink:href="#Arial-BoldMT-4e" transform="translate(288.964844 0)"/>
      <use xlink:href="#Arial-BoldMT-6f" transform="translate(361.181641 0)"/>
      <use xlink:href="#Arial-BoldMT-69" transform="translate(422.265625 0)"/>
      <use xlink:href="#Arial-BoldMT-73" transform="translate(450.048828 0)"/>
      <use xlink:href="#Arial-BoldMT-65" transform="translate(505.664062 0)"/>
      <use xlink:href="#Arial-BoldMT-20" transform="translate(561.279297 0)"/>
      <use xlink:href="#Arial-BoldMT-4c" transform="translate(589.0625 0)"/>
      <use xlink:href="#Arial-BoldMT-65" transform="translate(650.146484 0)"/>
      <use xlink:href="#Arial-BoldMT-76" transform="translate(705.761719 0)"/>
      <use xlink:href="#Arial-BoldMT-65" transform="translate(761.376953 0)"/>
      <use xlink:href="#Arial-BoldMT-6c" transform="translate(816.992188 0)"/>
     </g>
    </g>
   </g>
   <g id="matplotlib.axis_2">
    <g id="ytick_1">
     <g id="line2d_11">
      <path d="M 62.573438 369.287468 
L 705.548438 369.287468 
" clip-path="url(#pf790709f65)" style="fill: none; stroke: #cccccc; stroke-opacity: 0.3; stroke-width: 0.8; stroke-linecap: round"/>
     </g>
     <g id="line2d_12"/>
     <g id="text_7">
      <!-- −0.2 -->
      <g style="fill: #262626" transform="translate(29.4625 374.655827) scale(0.15 -0.15)">
       <defs>
        <path id="ArialMT-2212" d="M 3381 1997 
L 356 1997 
L 356 2522 
L 3381 2522 
L 3381 1997 
z
" transform="scale(0.015625)"/>
       </defs>
       <use xlink:href="#ArialMT-2212"/>
       <use xlink:href="#ArialMT-30" transform="translate(58.398438 0)"/>
       <use xlink:href="#ArialMT-2e" transform="translate(114.013672 0)"/>
       <use xlink:href="#ArialMT-32" transform="translate(141.796875 0)"/>
      </g>
     </g>
    </g>
    <g id="ytick_2">
     <g id="line2d_13">
      <path d="M 62.573438 289.081698 
L 705.548438 289.081698 
" clip-path="url(#pf790709f65)" style="fill: none; stroke: #cccccc; stroke-opacity: 0.3; stroke-width: 0.8; stroke-linecap: round"/>
     </g>
     <g id="line2d_14"/>
     <g id="text_8">
      <!-- −0.1 -->
      <g style="fill: #262626" transform="translate(29.4625 294.450057) scale(0.15 -0.15)">
       <use xlink:href="#ArialMT-2212"/>
       <use xlink:href="#ArialMT-30" transform="translate(58.398438 0)"/>
       <use xlink:href="#ArialMT-2e" transform="translate(114.013672 0)"/>
       <use xlink:href="#ArialMT-31" transform="translate(141.796875 0)"/>
      </g>
     </g>
    </g>
    <g id="ytick_3">
     <g id="line2d_15">
      <path d="M 62.573438 208.875928 
L 705.548438 208.875928 
" clip-path="url(#pf790709f65)" style="fill: none; stroke: #cccccc; stroke-opacity: 0.3; stroke-width: 0.8; stroke-linecap: round"/>
     </g>
     <g id="line2d_16"/>
     <g id="text_9">
      <!-- 0.0 -->
      <g style="fill: #262626" transform="translate(38.223438 214.244288) scale(0.15 -0.15)">
       <use xlink:href="#ArialMT-30"/>
       <use xlink:href="#ArialMT-2e" transform="translate(55.615234 0)"/>
       <use xlink:href="#ArialMT-30" transform="translate(83.398438 0)"/>
      </g>
     </g>
    </g>
    <g id="ytick_4">
     <g id="line2d_17">
      <path d="M 62.573438 128.670159 
L 705.548438 128.670159 
" clip-path="url(#pf790709f65)" style="fill: none; stroke: #cccccc; stroke-opacity: 0.3; stroke-width: 0.8; stroke-linecap: round"/>
     </g>
     <g id="line2d_18"/>
     <g id="text_10">
      <!-- 0.1 -->
      <g style="fill: #262626" transform="translate(38.223438 134.038518) scale(0.15 -0.15)">
       <use xlink:href="#ArialMT-30"/>
       <use xlink:href="#ArialMT-2e" transform="translate(55.615234 0)"/>
       <use xlink:href="#ArialMT-31" transform="translate(83.398438 0)"/>
      </g>
     </g>
    </g>
    <g id="ytick_5">
     <g id="line2d_19">
      <path d="M 62.573438 48.464389 
L 705.548438 48.464389 
" clip-path="url(#pf790709f65)" style="fill: none; stroke: #cccccc; stroke-opacity: 0.3; stroke-width: 0.8; stroke-linecap: round"/>
     </g>
     <g id="line2d_20"/>
     <g id="text_11">
      <!-- 0.2 -->
      <g style="fill: #262626" transform="translate(38.223438 53.832748) scale(0.15 -0.15)">
       <use xlink:href="#ArialMT-30"/>
       <use xlink:href="#ArialMT-2e" transform="translate(55.615234 0)"/>
       <use xlink:href="#ArialMT-32" transform="translate(83.398438 0)"/>
      </g>
     </g>
    </g>
    <g id="text_12">
     <!-- Error Reduction -->
     <g style="fill: #262626" transform="translate(21.515625 268.745625) rotate(-90) scale(0.2 -0.2)">
      <defs>
       <path id="Arial-BoldMT-45" d="M 466 0 
L 466 4581 
L 3863 4581 
L 3863 3806 
L 1391 3806 
L 1391 2791 
L 3691 2791 
L 3691 2019 
L 1391 2019 
L 1391 772 
L 3950 772 
L 3950 0 
L 466 0 
z
" transform="scale(0.015625)"/>
       <path id="Arial-BoldMT-72" d="M 1300 0 
L 422 0 
L 422 3319 
L 1238 3319 
L 1238 2847 
Q 1447 3181 1614 3287 
Q 1781 3394 1994 3394 
Q 2294 3394 2572 3228 
L 2300 2463 
Q 2078 2606 1888 2606 
Q 1703 2606 1575 2504 
Q 1447 2403 1373 2137 
Q 1300 1872 1300 1025 
L 1300 0 
z
" transform="scale(0.015625)"/>
       <path id="Arial-BoldMT-52" d="M 469 0 
L 469 4581 
L 2416 4581 
Q 3150 4581 3483 4457 
Q 3816 4334 4016 4018 
Q 4216 3703 4216 3297 
Q 4216 2781 3912 2445 
Q 3609 2109 3006 2022 
Q 3306 1847 3501 1637 
Q 3697 1428 4028 894 
L 4588 0 
L 3481 0 
L 2813 997 
Q 2456 1531 2325 1670 
Q 2194 1809 2047 1861 
Q 1900 1913 1581 1913 
L 1394 1913 
L 1394 0 
L 469 0 
z
M 1394 2644 
L 2078 2644 
Q 2744 2644 2909 2700 
Q 3075 2756 3169 2893 
Q 3263 3031 3263 3238 
Q 3263 3469 3139 3611 
Q 3016 3753 2791 3791 
Q 2678 3806 2116 3806 
L 1394 3806 
L 1394 2644 
z
" transform="scale(0.015625)"/>
       <path id="Arial-BoldMT-64" d="M 3503 0 
L 2688 0 
L 2688 488 
Q 2484 203 2207 64 
Q 1931 -75 1650 -75 
Q 1078 -75 670 386 
Q 263 847 263 1672 
Q 263 2516 659 2955 
Q 1056 3394 1663 3394 
Q 2219 3394 2625 2931 
L 2625 4581 
L 3503 4581 
L 3503 0 
z
M 1159 1731 
Q 1159 1200 1306 963 
Q 1519 619 1900 619 
Q 2203 619 2415 876 
Q 2628 1134 2628 1647 
Q 2628 2219 2422 2470 
Q 2216 2722 1894 2722 
Q 1581 2722 1370 2473 
Q 1159 2225 1159 1731 
z
" transform="scale(0.015625)"/>
       <path id="Arial-BoldMT-75" d="M 2644 0 
L 2644 497 
Q 2463 231 2167 78 
Q 1872 -75 1544 -75 
Q 1209 -75 943 72 
Q 678 219 559 484 
Q 441 750 441 1219 
L 441 3319 
L 1319 3319 
L 1319 1794 
Q 1319 1094 1367 936 
Q 1416 778 1544 686 
Q 1672 594 1869 594 
Q 2094 594 2272 717 
Q 2450 841 2515 1023 
Q 2581 1206 2581 1919 
L 2581 3319 
L 3459 3319 
L 3459 0 
L 2644 0 
z
" transform="scale(0.015625)"/>
       <path id="Arial-BoldMT-74" d="M 1981 3319 
L 1981 2619 
L 1381 2619 
L 1381 1281 
Q 1381 875 1398 808 
Q 1416 741 1477 697 
Q 1538 653 1625 653 
Q 1747 653 1978 738 
L 2053 56 
Q 1747 -75 1359 -75 
Q 1122 -75 931 4 
Q 741 84 652 211 
Q 563 338 528 553 
Q 500 706 500 1172 
L 500 2619 
L 97 2619 
L 97 3319 
L 500 3319 
L 500 3978 
L 1381 4491 
L 1381 3319 
L 1981 3319 
z
" transform="scale(0.015625)"/>
       <path id="Arial-BoldMT-6e" d="M 3478 0 
L 2600 0 
L 2600 1694 
Q 2600 2231 2544 2389 
Q 2488 2547 2361 2634 
Q 2234 2722 2056 2722 
Q 1828 2722 1647 2597 
Q 1466 2472 1398 2265 
Q 1331 2059 1331 1503 
L 1331 0 
L 453 0 
L 453 3319 
L 1269 3319 
L 1269 2831 
Q 1703 3394 2363 3394 
Q 2653 3394 2893 3289 
Q 3134 3184 3257 3021 
Q 3381 2859 3429 2653 
Q 3478 2447 3478 2063 
L 3478 0 
z
" transform="scale(0.015625)"/>
      </defs>
      <use xlink:href="#Arial-BoldMT-45"/>
      <use xlink:href="#Arial-BoldMT-72" transform="translate(66.699219 0)"/>
      <use xlink:href="#Arial-BoldMT-72" transform="translate(105.615234 0)"/>
      <use xlink:href="#Arial-BoldMT-6f" transform="translate(144.53125 0)"/>
      <use xlink:href="#Arial-BoldMT-72" transform="translate(205.615234 0)"/>
      <use xlink:href="#Arial-BoldMT-20" transform="translate(244.53125 0)"/>
      <use xlink:href="#Arial-BoldMT-52" transform="translate(272.314453 0)"/>
      <use xlink:href="#Arial-BoldMT-65" transform="translate(344.53125 0)"/>
      <use xlink:href="#Arial-BoldMT-64" transform="translate(400.146484 0)"/>
      <use xlink:href="#Arial-BoldMT-75" transform="translate(461.230469 0)"/>
      <use xlink:href="#Arial-BoldMT-63" transform="translate(522.314453 0)"/>
      <use xlink:href="#Arial-BoldMT-74" transform="translate(577.929688 0)"/>
      <use xlink:href="#Arial-BoldMT-69" transform="translate(611.230469 0)"/>
      <use xlink:href="#Arial-BoldMT-6f" transform="translate(639.013672 0)"/>
      <use xlink:href="#Arial-BoldMT-6e" transform="translate(700.097656 0)"/>
     </g>
    </g>
   </g>
   <g id="patch_3">
    <path d="M 91.799574 208.875928 
L 140.509801 208.875928 
L 140.509801 82.576667 
L 91.799574 82.576667 
z
" clip-path="url(#pf790709f65)" style="fill: #f77189; opacity: 0.8"/>
   </g>
   <g id="patch_4">
    <path d="M 213.575142 208.875928 
L 262.285369 208.875928 
L 262.285369 229.751067 
L 213.575142 229.751067 
z
" clip-path="url(#pf790709f65)" style="fill: #f77189; opacity: 0.8"/>
   </g>
   <g id="patch_5">
    <path d="M 335.35071 208.875928 
L 384.060938 208.875928 
L 384.060938 186.008953 
L 335.35071 186.008953 
z
" clip-path="url(#pf790709f65)" style="fill: #f77189; opacity: 0.8"/>
   </g>
   <g id="patch_6">
    <path d="M 457.126278 208.875928 
L 505.836506 208.875928 
L 505.836506 273.646741 
L 457.126278 273.646741 
z
" clip-path="url(#pf790709f65)" style="fill: #f77189; opacity: 0.8"/>
   </g>
   <g id="patch_7">
    <path d="M 578.901847 208.875928 
L 627.612074 208.875928 
L 627.612074 157.615381 
L 578.901847 157.615381 
z
" clip-path="url(#pf790709f65)" style="fill: #f77189; opacity: 0.8"/>
   </g>
   <g id="patch_8">
    <path d="M 140.509801 208.875928 
L 189.220028 208.875928 
L 189.220028 245.770096 
L 140.509801 245.770096 
z
" clip-path="url(#pf790709f65)" style="fill: #bb9832; opacity: 0.8"/>
   </g>
   <g id="patch_9">
    <path d="M 262.285369 208.875928 
L 310.995597 208.875928 
L 310.995597 213.537084 
L 262.285369 213.537084 
z
" clip-path="url(#pf790709f65)" style="fill: #bb9832; opacity: 0.8"/>
   </g>
   <g id="patch_10">
    <path d="M 384.060938 208.875928 
L 432.771165 208.875928 
L 432.771165 250.428282 
L 384.060938 250.428282 
z
" clip-path="url(#pf790709f65)" style="fill: #bb9832; opacity: 0.8"/>
   </g>
   <g id="patch_11">
    <path d="M 505.836506 208.875928 
L 554.546733 208.875928 
L 554.546733 173.38284 
L 505.836506 173.38284 
z
" clip-path="url(#pf790709f65)" style="fill: #bb9832; opacity: 0.8"/>
   </g>
   <g id="patch_12">
    <path d="M 627.612074 208.875928 
L 676.322301 208.875928 
L 676.322301 203.712221 
L 627.612074 203.712221 
z
" clip-path="url(#pf790709f65)" style="fill: #bb9832; opacity: 0.8"/>
   </g>
   <g id="LineCollection_1">
    <path d="M 116.154688 141.096062 
L 116.154688 24.057273 
" clip-path="url(#pf790709f65)" style="fill: none; stroke: #000000; stroke-width: 1.5"/>
    <path d="M 237.930256 287.593017 
L 237.930256 171.909116 
" clip-path="url(#pf790709f65)" style="fill: none; stroke: #000000; stroke-width: 1.5"/>
    <path d="M 359.705824 251.985366 
L 359.705824 120.03254 
" clip-path="url(#pf790709f65)" style="fill: none; stroke: #000000; stroke-width: 1.5"/>
    <path d="M 481.481392 361.202727 
L 481.481392 186.090755 
" clip-path="url(#pf790709f65)" style="fill: none; stroke: #000000; stroke-width: 1.5"/>
    <path d="M 603.25696 233.428556 
L 603.25696 81.802206 
" clip-path="url(#pf790709f65)" style="fill: none; stroke: #000000; stroke-width: 1.5"/>
   </g>
   <g id="line2d_21">
    <defs>
     <path id="m0d37150950" d="M 4 0 
L -4 -0 
" style="stroke: #000000"/>
    </defs>
    <g clip-path="url(#pf790709f65)">
     <use xlink:href="#m0d37150950" x="116.154688" y="141.096062" style="fill: #f77189; stroke: #000000"/>
     <use xlink:href="#m0d37150950" x="237.930256" y="287.593017" style="fill: #f77189; stroke: #000000"/>
     <use xlink:href="#m0d37150950" x="359.705824" y="251.985366" style="fill: #f77189; stroke: #000000"/>
     <use xlink:href="#m0d37150950" x="481.481392" y="361.202727" style="fill: #f77189; stroke: #000000"/>
     <use xlink:href="#m0d37150950" x="603.25696" y="233.428556" style="fill: #f77189; stroke: #000000"/>
    </g>
   </g>
   <g id="line2d_22">
    <g clip-path="url(#pf790709f65)">
     <use xlink:href="#m0d37150950" x="116.154688" y="24.057273" style="fill: #f77189; stroke: #000000"/>
     <use xlink:href="#m0d37150950" x="237.930256" y="171.909116" style="fill: #f77189; stroke: #000000"/>
     <use xlink:href="#m0d37150950" x="359.705824" y="120.03254" style="fill: #f77189; stroke: #000000"/>
     <use xlink:href="#m0d37150950" x="481.481392" y="186.090755" style="fill: #f77189; stroke: #000000"/>
     <use xlink:href="#m0d37150950" x="603.25696" y="81.802206" style="fill: #f77189; stroke: #000000"/>
    </g>
   </g>
   <g id="LineCollection_2">
    <path d="M 164.864915 268.510708 
L 164.864915 223.029484 
" clip-path="url(#pf790709f65)" style="fill: none; stroke: #000000; stroke-width: 1.5"/>
    <path d="M 286.640483 235.285545 
L 286.640483 191.788623 
" clip-path="url(#pf790709f65)" style="fill: none; stroke: #000000; stroke-width: 1.5"/>
    <path d="M 408.416051 273.41111 
L 408.416051 227.445454 
" clip-path="url(#pf790709f65)" style="fill: none; stroke: #000000; stroke-width: 1.5"/>
    <path d="M 530.191619 194.674729 
L 530.191619 152.090952 
" clip-path="url(#pf790709f65)" style="fill: none; stroke: #000000; stroke-width: 1.5"/>
    <path d="M 651.967188 225.068805 
L 651.967188 182.355636 
" clip-path="url(#pf790709f65)" style="fill: none; stroke: #000000; stroke-width: 1.5"/>
   </g>
   <g id="line2d_23">
    <g clip-path="url(#pf790709f65)">
     <use xlink:href="#m0d37150950" x="164.864915" y="268.510708" style="fill: #f77189; stroke: #000000"/>
     <use xlink:href="#m0d37150950" x="286.640483" y="235.285545" style="fill: #f77189; stroke: #000000"/>
     <use xlink:href="#m0d37150950" x="408.416051" y="273.41111" style="fill: #f77189; stroke: #000000"/>
     <use xlink:href="#m0d37150950" x="530.191619" y="194.674729" style="fill: #f77189; stroke: #000000"/>
     <use xlink:href="#m0d37150950" x="651.967188" y="225.068805" style="fill: #f77189; stroke: #000000"/>
    </g>
   </g>
   <g id="line2d_24">
    <g clip-path="url(#pf790709f65)">
     <use xlink:href="#m0d37150950" x="164.864915" y="223.029484" style="fill: #f77189; stroke: #000000"/>
     <use xlink:href="#m0d37150950" x="286.640483" y="191.788623" style="fill: #f77189; stroke: #000000"/>
     <use xlink:href="#m0d37150950" x="408.416051" y="227.445454" style="fill: #f77189; stroke: #000000"/>
     <use xlink:href="#m0d37150950" x="530.191619" y="152.090952" style="fill: #f77189; stroke: #000000"/>
     <use xlink:href="#m0d37150950" x="651.967188" y="182.355636" style="fill: #f77189; stroke: #000000"/>
    </g>
   </g>
   <g id="line2d_25">
    <path d="M 62.573438 208.875928 
L 705.548438 208.875928 
" clip-path="url(#pf790709f65)" style="fill: none; stroke-dasharray: 5.55,2.4; stroke-dashoffset: 0; stroke: #ff0000; stroke-opacity: 0.5; stroke-width: 1.5"/>
   </g>
   <g id="patch_13">
    <path d="M 62.573438 378.06 
L 62.573438 7.2 
" style="fill: none; stroke: #cccccc; stroke-linejoin: miter; stroke-linecap: square"/>
   </g>
   <g id="patch_14">
    <path d="M 705.548438 378.06 
L 705.548438 7.2 
" style="fill: none; stroke: #cccccc; stroke-linejoin: miter; stroke-linecap: square"/>
   </g>
   <g id="patch_15">
    <path d="M 62.573437 378.06 
L 705.548438 378.06 
" style="fill: none; stroke: #cccccc; stroke-linejoin: miter; stroke-linecap: square"/>
   </g>
   <g id="patch_16">
    <path d="M 62.573437 7.2 
L 705.548438 7.2 
" style="fill: none; stroke: #cccccc; stroke-linejoin: miter; stroke-linecap: square"/>
   </g>
   <g id="legend_1">
    <g id="patch_17">
     <path d="M 589.020313 63.635938 
L 697.048438 63.635938 
Q 700.048438 63.635938 700.048438 60.635938 
L 700.048438 19.7 
Q 700.048438 16.7 697.048438 16.7 
L 589.020313 16.7 
Q 586.020313 16.7 586.020313 19.7 
L 586.020313 60.635938 
Q 586.020313 63.635938 589.020313 63.635938 
z
" style="fill: #4d4d4d; opacity: 0.5; stroke: #4d4d4d; stroke-linejoin: miter"/>
    </g>
    <g id="patch_18">
     <path d="M 587.020313 61.635938 
L 695.048438 61.635938 
Q 698.048438 61.635938 698.048438 58.635938 
L 698.048438 17.7 
Q 698.048438 14.7 695.048438 14.7 
L 587.020313 14.7 
Q 584.020313 14.7 584.020313 17.7 
L 584.020313 58.635938 
Q 584.020313 61.635938 587.020313 61.635938 
z
" style="fill: #ffffff; stroke: #cccccc; stroke-linejoin: miter"/>
    </g>
    <g id="patch_19">
     <path d="M 590.020313 31.436719 
L 620.020313 31.436719 
L 620.020313 20.936719 
L 590.020313 20.936719 
z
" style="fill: #f77189; opacity: 0.8"/>
    </g>
    <g id="text_13">
     <!-- GLOBAL -->
     <g style="fill: #262626" transform="translate(632.020313 31.436719) scale(0.15 -0.15)">
      <defs>
       <path id="ArialMT-47" d="M 2638 1797 
L 2638 2334 
L 4578 2338 
L 4578 638 
Q 4131 281 3656 101 
Q 3181 -78 2681 -78 
Q 2006 -78 1454 211 
Q 903 500 622 1047 
Q 341 1594 341 2269 
Q 341 2938 620 3517 
Q 900 4097 1425 4378 
Q 1950 4659 2634 4659 
Q 3131 4659 3532 4498 
Q 3934 4338 4162 4050 
Q 4391 3763 4509 3300 
L 3963 3150 
Q 3859 3500 3706 3700 
Q 3553 3900 3268 4020 
Q 2984 4141 2638 4141 
Q 2222 4141 1919 4014 
Q 1616 3888 1430 3681 
Q 1244 3475 1141 3228 
Q 966 2803 966 2306 
Q 966 1694 1177 1281 
Q 1388 869 1791 669 
Q 2194 469 2647 469 
Q 3041 469 3416 620 
Q 3791 772 3984 944 
L 3984 1797 
L 2638 1797 
z
" transform="scale(0.015625)"/>
       <path id="ArialMT-4c" d="M 469 0 
L 469 4581 
L 1075 4581 
L 1075 541 
L 3331 541 
L 3331 0 
L 469 0 
z
" transform="scale(0.015625)"/>
       <path id="ArialMT-4f" d="M 309 2231 
Q 309 3372 921 4017 
Q 1534 4663 2503 4663 
Q 3138 4663 3647 4359 
Q 4156 4056 4423 3514 
Q 4691 2972 4691 2284 
Q 4691 1588 4409 1038 
Q 4128 488 3612 205 
Q 3097 -78 2500 -78 
Q 1853 -78 1343 234 
Q 834 547 571 1087 
Q 309 1628 309 2231 
z
M 934 2222 
Q 934 1394 1379 917 
Q 1825 441 2497 441 
Q 3181 441 3623 922 
Q 4066 1403 4066 2288 
Q 4066 2847 3877 3264 
Q 3688 3681 3323 3911 
Q 2959 4141 2506 4141 
Q 1863 4141 1398 3698 
Q 934 3256 934 2222 
z
" transform="scale(0.015625)"/>
       <path id="ArialMT-42" d="M 469 0 
L 469 4581 
L 2188 4581 
Q 2713 4581 3030 4442 
Q 3347 4303 3526 4014 
Q 3706 3725 3706 3409 
Q 3706 3116 3547 2856 
Q 3388 2597 3066 2438 
Q 3481 2316 3704 2022 
Q 3928 1728 3928 1328 
Q 3928 1006 3792 729 
Q 3656 453 3456 303 
Q 3256 153 2954 76 
Q 2653 0 2216 0 
L 469 0 
z
M 1075 2656 
L 2066 2656 
Q 2469 2656 2644 2709 
Q 2875 2778 2992 2937 
Q 3109 3097 3109 3338 
Q 3109 3566 3000 3739 
Q 2891 3913 2687 3977 
Q 2484 4041 1991 4041 
L 1075 4041 
L 1075 2656 
z
M 1075 541 
L 2216 541 
Q 2509 541 2628 563 
Q 2838 600 2978 687 
Q 3119 775 3209 942 
Q 3300 1109 3300 1328 
Q 3300 1584 3169 1773 
Q 3038 1963 2805 2039 
Q 2572 2116 2134 2116 
L 1075 2116 
L 1075 541 
z
" transform="scale(0.015625)"/>
       <path id="ArialMT-41" d="M -9 0 
L 1750 4581 
L 2403 4581 
L 4278 0 
L 3588 0 
L 3053 1388 
L 1138 1388 
L 634 0 
L -9 0 
z
M 1313 1881 
L 2866 1881 
L 2388 3150 
Q 2169 3728 2063 4100 
Q 1975 3659 1816 3225 
L 1313 1881 
z
" transform="scale(0.015625)"/>
      </defs>
      <use xlink:href="#ArialMT-47"/>
      <use xlink:href="#ArialMT-4c" transform="translate(77.783203 0)"/>
      <use xlink:href="#ArialMT-4f" transform="translate(133.398438 0)"/>
      <use xlink:href="#ArialMT-42" transform="translate(211.181641 0)"/>
      <use xlink:href="#ArialMT-41" transform="translate(277.880859 0)"/>
      <use xlink:href="#ArialMT-4c" transform="translate(344.580078 0)"/>
     </g>
    </g>
    <g id="patch_20">
     <path d="M 590.020313 52.654688 
L 620.020313 52.654688 
L 620.020313 42.154688 
L 590.020313 42.154688 
z
" style="fill: #bb9832; opacity: 0.8"/>
    </g>
    <g id="text_14">
     <!-- LOCAL -->
     <g style="fill: #262626" transform="translate(632.020313 52.654688) scale(0.15 -0.15)">
      <defs>
       <path id="ArialMT-43" d="M 3763 1606 
L 4369 1453 
Q 4178 706 3683 314 
Q 3188 -78 2472 -78 
Q 1731 -78 1267 223 
Q 803 525 561 1097 
Q 319 1669 319 2325 
Q 319 3041 592 3573 
Q 866 4106 1370 4382 
Q 1875 4659 2481 4659 
Q 3169 4659 3637 4309 
Q 4106 3959 4291 3325 
L 3694 3184 
Q 3534 3684 3231 3912 
Q 2928 4141 2469 4141 
Q 1941 4141 1586 3887 
Q 1231 3634 1087 3207 
Q 944 2781 944 2328 
Q 944 1744 1114 1308 
Q 1284 872 1643 656 
Q 2003 441 2422 441 
Q 2931 441 3284 734 
Q 3638 1028 3763 1606 
z
" transform="scale(0.015625)"/>
      </defs>
      <use xlink:href="#ArialMT-4c"/>
      <use xlink:href="#ArialMT-4f" transform="translate(55.615234 0)"/>
      <use xlink:href="#ArialMT-43" transform="translate(133.398438 0)"/>
      <use xlink:href="#ArialMT-41" transform="translate(205.615234 0)"/>
      <use xlink:href="#ArialMT-4c" transform="translate(272.314453 0)"/>
     </g>
    </g>
   </g>
  </g>
 </g>
 <defs>
  <clipPath id="pf790709f65">
   <rect x="62.573438" y="7.2" width="642.975" height="370.86"/>
  </clipPath>
 </defs>
</svg>
