<?xml version="1.0" encoding="utf-8" standalone="no"?>
<!DOCTYPE svg PUBLIC "-//W3C//DTD SVG 1.1//EN"
  "http://www.w3.org/Graphics/SVG/1.1/DTD/svg11.dtd">
<svg xmlns:xlink="http://www.w3.org/1999/xlink" width="712.809844pt" height="424.740469pt" viewBox="0 0 712.809844 424.740469" xmlns="http://www.w3.org/2000/svg" version="1.1">
 <metadata>
  <rdf:RDF xmlns:dc="http://purl.org/dc/elements/1.1/" xmlns:cc="http://creativecommons.org/ns#" xmlns:rdf="http://www.w3.org/1999/02/22-rdf-syntax-ns#">
   <cc:Work>
    <dc:type rdf:resource="http://purl.org/dc/dcmitype/StillImage"/>
    <dc:date>2026-02-04T16:38:19.455411</dc:date>
    <dc:format>image/svg+xml</dc:format>
    <dc:creator>
     <cc:Agent>
      <dc:title>Matplotlib v3.10.8, https://matplotlib.org/</dc:title>
     </cc:Agent>
    </dc:creator>
   </cc:Work>
  </rdf:RDF>
 </metadata>
 <defs>
  <style type="text/css">*{stroke-linejoin: round; stroke-linecap: butt}</style>
 </defs>
 <g id="figure_1">
  <g id="patch_1">
   <path d="M 0 424.740469 
L 712.809844 424.740469 
L 712.809844 0 
L 0 0 
z
" style="fill: #ffffff"/>
  </g>
  <g id="axes_1">
   <g id="patch_2">
    <path d="M 70.914844 378.06 
L 705.609844 378.06 
L 705.609844 7.2 
L 70.914844 7.2 
z
" style="fill: #ffffff"/>
   </g>
   <g id="matplotlib.axis_1">
    <g id="xtick_1">
     <g id="line2d_1">
      <path d="M 147.847571 378.06 
L 147.847571 7.2 
" clip-path="url(#p62f78287e5)" style="fill: none; stroke: #cccccc; stroke-width: 0.8; stroke-linecap: round"/>
     </g>
     <g id="line2d_2"/>
     <g id="text_1">
      <!-- 2 -->
      <g style="fill: #262626" transform="translate(143.676868 392.296719) scale(0.15 -0.15)">
       <defs>
        <path id="ArialMT-32" d="M 3222 541 
L 3222 0 
L 194 0 
Q 188 203 259 391 
Q 375 700 629 1000 
Q 884 1300 1366 1694 
Q 2113 2306 2375 2664 
Q 2638 3022 2638 3341 
Q 2638 3675 2398 3904 
Q 2159 4134 1775 4134 
Q 1369 4134 1125 3890 
Q 881 3647 878 3216 
L 300 3275 
Q 359 3922 746 4261 
Q 1134 4600 1788 4600 
Q 2447 4600 2831 4234 
Q 3216 3869 3216 3328 
Q 3216 3053 3103 2787 
Q 2991 2522 2730 2228 
Q 2469 1934 1863 1422 
Q 1356 997 1212 845 
Q 1069 694 975 541 
L 3222 541 
z
" transform="scale(0.015625)"/>
       </defs>
       <use xlink:href="#ArialMT-32"/>
      </g>
     </g>
    </g>
    <g id="xtick_2">
     <g id="line2d_3">
      <path d="M 268.054957 378.06 
L 268.054957 7.2 
" clip-path="url(#p62f78287e5)" style="fill: none; stroke: #cccccc; stroke-width: 0.8; stroke-linecap: round"/>
     </g>
     <g id="line2d_4"/>
     <g id="text_2">
      <!-- 3 -->
      <g style="fill: #262626" transform="translate(263.884254 392.296719) scale(0.15 -0.15)">
       <defs>
        <path id="ArialMT-33" d="M 269 1209 
L 831 1284 
Q 928 806 1161 595 
Q 1394 384 1728 384 
Q 2125 384 2398 659 
Q 2672 934 2672 1341 
Q 2672 1728 2419 1979 
Q 2166 2231 1775 2231 
Q 1616 2231 1378 2169 
L 1441 2663 
Q 1497 2656 1531 2656 
Q 1891 2656 2178 2843 
Q 2466 3031 2466 3422 
Q 2466 3731 2256 3934 
Q 2047 4138 1716 4138 
Q 1388 4138 1169 3931 
Q 950 3725 888 3313 
L 325 3413 
Q 428 3978 793 4289 
Q 1159 4600 1703 4600 
Q 2078 4600 2393 4439 
Q 2709 4278 2876 4000 
Q 3044 3722 3044 3409 
Q 3044 3113 2884 2869 
Q 2725 2625 2413 2481 
Q 2819 2388 3044 2092 
Q 3269 1797 3269 1353 
Q 3269 753 2831 336 
Q 2394 -81 1725 -81 
Q 1122 -81 723 278 
Q 325 638 269 1209 
z
" transform="scale(0.015625)"/>
       </defs>
       <use xlink:href="#ArialMT-33"/>
      </g>
     </g>
    </g>
    <g id="xtick_3">
     <g id="line2d_5">
      <path d="M 388.262344 378.06 
L 388.262344 7.2 
" clip-path="url(#p62f78287e5)" style="fill: none; stroke: #cccccc; stroke-width: 0.8; stroke-linecap: round"/>
     </g>
     <g id="line2d_6"/>
     <g id="text_3">
      <!-- 4 -->
      <g style="fill: #262626" transform="translate(384.091641 392.296719) scale(0.15 -0.15)">
       <defs>
        <path id="ArialMT-34" d="M 2069 0 
L 2069 1097 
L 81 1097 
L 81 1613 
L 2172 4581 
L 2631 4581 
L 2631 1613 
L 3250 1613 
L 3250 1097 
L 2631 1097 
L 2631 0 
L 2069 0 
z
M 2069 1613 
L 2069 3678 
L 634 1613 
L 2069 1613 
z
" transform="scale(0.015625)"/>
       </defs>
       <use xlink:href="#ArialMT-34"/>
      </g>
     </g>
    </g>
    <g id="xtick_4">
     <g id="line2d_7">
      <path d="M 508.46973 378.06 
L 508.46973 7.2 
" clip-path="url(#p62f78287e5)" style="fill: none; stroke: #cccccc; stroke-width: 0.8; stroke-linecap: round"/>
     </g>
     <g id="line2d_8"/>
     <g id="text_4">
      <!-- 5 -->
      <g style="fill: #262626" transform="translate(504.299027 392.296719) scale(0.15 -0.15)">
       <defs>
        <path id="ArialMT-35" d="M 266 1200 
L 856 1250 
Q 922 819 1161 601 
Q 1400 384 1738 384 
Q 2144 384 2425 690 
Q 2706 997 2706 1503 
Q 2706 1984 2436 2262 
Q 2166 2541 1728 2541 
Q 1456 2541 1237 2417 
Q 1019 2294 894 2097 
L 366 2166 
L 809 4519 
L 3088 4519 
L 3088 3981 
L 1259 3981 
L 1013 2750 
Q 1425 3038 1878 3038 
Q 2478 3038 2890 2622 
Q 3303 2206 3303 1553 
Q 3303 931 2941 478 
Q 2500 -78 1738 -78 
Q 1113 -78 717 272 
Q 322 622 266 1200 
z
" transform="scale(0.015625)"/>
       </defs>
       <use xlink:href="#ArialMT-35"/>
      </g>
     </g>
    </g>
    <g id="xtick_5">
     <g id="line2d_9">
      <path d="M 628.677116 378.06 
L 628.677116 7.2 
" clip-path="url(#p62f78287e5)" style="fill: none; stroke: #cccccc; stroke-width: 0.8; stroke-linecap: round"/>
     </g>
     <g id="line2d_10"/>
     <g id="text_5">
      <!-- 6 -->
      <g style="fill: #262626" transform="translate(624.506413 392.296719) scale(0.15 -0.15)">
       <defs>
        <path id="ArialMT-36" d="M 3184 3459 
L 2625 3416 
Q 2550 3747 2413 3897 
Q 2184 4138 1850 4138 
Q 1581 4138 1378 3988 
Q 1113 3794 959 3422 
Q 806 3050 800 2363 
Q 1003 2672 1297 2822 
Q 1591 2972 1913 2972 
Q 2475 2972 2870 2558 
Q 3266 2144 3266 1488 
Q 3266 1056 3080 686 
Q 2894 316 2569 119 
Q 2244 -78 1831 -78 
Q 1128 -78 684 439 
Q 241 956 241 2144 
Q 241 3472 731 4075 
Q 1159 4600 1884 4600 
Q 2425 4600 2770 4297 
Q 3116 3994 3184 3459 
z
M 888 1484 
Q 888 1194 1011 928 
Q 1134 663 1356 523 
Q 1578 384 1822 384 
Q 2178 384 2434 671 
Q 2691 959 2691 1453 
Q 2691 1928 2437 2201 
Q 2184 2475 1800 2475 
Q 1419 2475 1153 2201 
Q 888 1928 888 1484 
z
" transform="scale(0.015625)"/>
       </defs>
       <use xlink:href="#ArialMT-36"/>
      </g>
     </g>
    </g>
    <g id="text_6">
     <!-- Number of Partitions -->
     <g style="fill: #262626" transform="translate(289.370156 413.593594) scale(0.2 -0.2)">
      <defs>
       <path id="Arial-BoldMT-4e" d="M 475 0 
L 475 4581 
L 1375 4581 
L 3250 1522 
L 3250 4581 
L 4109 4581 
L 4109 0 
L 3181 0 
L 1334 2988 
L 1334 0 
L 475 0 
z
" transform="scale(0.015625)"/>
       <path id="Arial-BoldMT-75" d="M 2644 0 
L 2644 497 
Q 2463 231 2167 78 
Q 1872 -75 1544 -75 
Q 1209 -75 943 72 
Q 678 219 559 484 
Q 441 750 441 1219 
L 441 3319 
L 1319 3319 
L 1319 1794 
Q 1319 1094 1367 936 
Q 1416 778 1544 686 
Q 1672 594 1869 594 
Q 2094 594 2272 717 
Q 2450 841 2515 1023 
Q 2581 1206 2581 1919 
L 2581 3319 
L 3459 3319 
L 3459 0 
L 2644 0 
z
" transform="scale(0.015625)"/>
       <path id="Arial-BoldMT-6d" d="M 394 3319 
L 1203 3319 
L 1203 2866 
Q 1638 3394 2238 3394 
Q 2556 3394 2790 3262 
Q 3025 3131 3175 2866 
Q 3394 3131 3647 3262 
Q 3900 3394 4188 3394 
Q 4553 3394 4806 3245 
Q 5059 3097 5184 2809 
Q 5275 2597 5275 2122 
L 5275 0 
L 4397 0 
L 4397 1897 
Q 4397 2391 4306 2534 
Q 4184 2722 3931 2722 
Q 3747 2722 3584 2609 
Q 3422 2497 3350 2280 
Q 3278 2063 3278 1594 
L 3278 0 
L 2400 0 
L 2400 1819 
Q 2400 2303 2353 2443 
Q 2306 2584 2207 2653 
Q 2109 2722 1941 2722 
Q 1738 2722 1575 2612 
Q 1413 2503 1342 2297 
Q 1272 2091 1272 1613 
L 1272 0 
L 394 0 
L 394 3319 
z
" transform="scale(0.015625)"/>
       <path id="Arial-BoldMT-62" d="M 422 0 
L 422 4581 
L 1300 4581 
L 1300 2931 
Q 1706 3394 2263 3394 
Q 2869 3394 3266 2955 
Q 3663 2516 3663 1694 
Q 3663 844 3258 384 
Q 2853 -75 2275 -75 
Q 1991 -75 1714 67 
Q 1438 209 1238 488 
L 1238 0 
L 422 0 
z
M 1294 1731 
Q 1294 1216 1456 969 
Q 1684 619 2063 619 
Q 2353 619 2558 867 
Q 2763 1116 2763 1650 
Q 2763 2219 2556 2470 
Q 2350 2722 2028 2722 
Q 1713 2722 1503 2476 
Q 1294 2231 1294 1731 
z
" transform="scale(0.015625)"/>
       <path id="Arial-BoldMT-65" d="M 2381 1056 
L 3256 909 
Q 3088 428 2723 176 
Q 2359 -75 1813 -75 
Q 947 -75 531 491 
Q 203 944 203 1634 
Q 203 2459 634 2926 
Q 1066 3394 1725 3394 
Q 2466 3394 2894 2905 
Q 3322 2416 3303 1406 
L 1103 1406 
Q 1113 1016 1316 798 
Q 1519 581 1822 581 
Q 2028 581 2168 693 
Q 2309 806 2381 1056 
z
M 2431 1944 
Q 2422 2325 2234 2523 
Q 2047 2722 1778 2722 
Q 1491 2722 1303 2513 
Q 1116 2303 1119 1944 
L 2431 1944 
z
" transform="scale(0.015625)"/>
       <path id="Arial-BoldMT-72" d="M 1300 0 
L 422 0 
L 422 3319 
L 1238 3319 
L 1238 2847 
Q 1447 3181 1614 3287 
Q 1781 3394 1994 3394 
Q 2294 3394 2572 3228 
L 2300 2463 
Q 2078 2606 1888 2606 
Q 1703 2606 1575 2504 
Q 1447 2403 1373 2137 
Q 1300 1872 1300 1025 
L 1300 0 
z
" transform="scale(0.015625)"/>
       <path id="Arial-BoldMT-20" transform="scale(0.015625)"/>
       <path id="Arial-BoldMT-6f" d="M 256 1706 
Q 256 2144 472 2553 
Q 688 2963 1083 3178 
Q 1478 3394 1966 3394 
Q 2719 3394 3200 2905 
Q 3681 2416 3681 1669 
Q 3681 916 3195 420 
Q 2709 -75 1972 -75 
Q 1516 -75 1102 131 
Q 688 338 472 736 
Q 256 1134 256 1706 
z
M 1156 1659 
Q 1156 1166 1390 903 
Q 1625 641 1969 641 
Q 2313 641 2545 903 
Q 2778 1166 2778 1666 
Q 2778 2153 2545 2415 
Q 2313 2678 1969 2678 
Q 1625 2678 1390 2415 
Q 1156 2153 1156 1659 
z
" transform="scale(0.015625)"/>
       <path id="Arial-BoldMT-66" d="M 75 3319 
L 563 3319 
L 563 3569 
Q 563 3988 652 4194 
Q 741 4400 980 4529 
Q 1219 4659 1584 4659 
Q 1959 4659 2319 4547 
L 2200 3934 
Q 1991 3984 1797 3984 
Q 1606 3984 1523 3895 
Q 1441 3806 1441 3553 
L 1441 3319 
L 2097 3319 
L 2097 2628 
L 1441 2628 
L 1441 0 
L 563 0 
L 563 2628 
L 75 2628 
L 75 3319 
z
" transform="scale(0.015625)"/>
       <path id="Arial-BoldMT-50" d="M 466 0 
L 466 4581 
L 1950 4581 
Q 2794 4581 3050 4513 
Q 3444 4409 3709 4064 
Q 3975 3719 3975 3172 
Q 3975 2750 3822 2462 
Q 3669 2175 3433 2011 
Q 3197 1847 2953 1794 
Q 2622 1728 1994 1728 
L 1391 1728 
L 1391 0 
L 466 0 
z
M 1391 3806 
L 1391 2506 
L 1897 2506 
Q 2444 2506 2628 2578 
Q 2813 2650 2917 2803 
Q 3022 2956 3022 3159 
Q 3022 3409 2875 3571 
Q 2728 3734 2503 3775 
Q 2338 3806 1838 3806 
L 1391 3806 
z
" transform="scale(0.015625)"/>
       <path id="Arial-BoldMT-61" d="M 1116 2306 
L 319 2450 
Q 453 2931 781 3162 
Q 1109 3394 1756 3394 
Q 2344 3394 2631 3255 
Q 2919 3116 3036 2902 
Q 3153 2688 3153 2116 
L 3144 1091 
Q 3144 653 3186 445 
Q 3228 238 3344 0 
L 2475 0 
Q 2441 88 2391 259 
Q 2369 338 2359 363 
Q 2134 144 1878 34 
Q 1622 -75 1331 -75 
Q 819 -75 523 203 
Q 228 481 228 906 
Q 228 1188 362 1408 
Q 497 1628 739 1745 
Q 981 1863 1438 1950 
Q 2053 2066 2291 2166 
L 2291 2253 
Q 2291 2506 2166 2614 
Q 2041 2722 1694 2722 
Q 1459 2722 1328 2630 
Q 1197 2538 1116 2306 
z
M 2291 1594 
Q 2122 1538 1756 1459 
Q 1391 1381 1278 1306 
Q 1106 1184 1106 997 
Q 1106 813 1243 678 
Q 1381 544 1594 544 
Q 1831 544 2047 700 
Q 2206 819 2256 991 
Q 2291 1103 2291 1419 
L 2291 1594 
z
" transform="scale(0.015625)"/>
       <path id="Arial-BoldMT-74" d="M 1981 3319 
L 1981 2619 
L 1381 2619 
L 1381 1281 
Q 1381 875 1398 808 
Q 1416 741 1477 697 
Q 1538 653 1625 653 
Q 1747 653 1978 738 
L 2053 56 
Q 1747 -75 1359 -75 
Q 1122 -75 931 4 
Q 741 84 652 211 
Q 563 338 528 553 
Q 500 706 500 1172 
L 500 2619 
L 97 2619 
L 97 3319 
L 500 3319 
L 500 3978 
L 1381 4491 
L 1381 3319 
L 1981 3319 
z
" transform="scale(0.015625)"/>
       <path id="Arial-BoldMT-69" d="M 459 3769 
L 459 4581 
L 1338 4581 
L 1338 3769 
L 459 3769 
z
M 459 0 
L 459 3319 
L 1338 3319 
L 1338 0 
L 459 0 
z
" transform="scale(0.015625)"/>
       <path id="Arial-BoldMT-6e" d="M 3478 0 
L 2600 0 
L 2600 1694 
Q 2600 2231 2544 2389 
Q 2488 2547 2361 2634 
Q 2234 2722 2056 2722 
Q 1828 2722 1647 2597 
Q 1466 2472 1398 2265 
Q 1331 2059 1331 1503 
L 1331 0 
L 453 0 
L 453 3319 
L 1269 3319 
L 1269 2831 
Q 1703 3394 2363 3394 
Q 2653 3394 2893 3289 
Q 3134 3184 3257 3021 
Q 3381 2859 3429 2653 
Q 3478 2447 3478 2063 
L 3478 0 
z
" transform="scale(0.015625)"/>
       <path id="Arial-BoldMT-73" d="M 150 947 
L 1031 1081 
Q 1088 825 1259 692 
Q 1431 559 1741 559 
Q 2081 559 2253 684 
Q 2369 772 2369 919 
Q 2369 1019 2306 1084 
Q 2241 1147 2013 1200 
Q 950 1434 666 1628 
Q 272 1897 272 2375 
Q 272 2806 612 3100 
Q 953 3394 1669 3394 
Q 2350 3394 2681 3172 
Q 3013 2950 3138 2516 
L 2309 2363 
Q 2256 2556 2107 2659 
Q 1959 2763 1684 2763 
Q 1338 2763 1188 2666 
Q 1088 2597 1088 2488 
Q 1088 2394 1175 2328 
Q 1294 2241 1995 2081 
Q 2697 1922 2975 1691 
Q 3250 1456 3250 1038 
Q 3250 581 2869 253 
Q 2488 -75 1741 -75 
Q 1063 -75 667 200 
Q 272 475 150 947 
z
" transform="scale(0.015625)"/>
      </defs>
      <use xlink:href="#Arial-BoldMT-4e"/>
      <use xlink:href="#Arial-BoldMT-75" transform="translate(72.216797 0)"/>
      <use xlink:href="#Arial-BoldMT-6d" transform="translate(133.300781 0)"/>
      <use xlink:href="#Arial-BoldMT-62" transform="translate(222.216797 0)"/>
      <use xlink:href="#Arial-BoldMT-65" transform="translate(283.300781 0)"/>
      <use xlink:href="#Arial-BoldMT-72" transform="translate(338.916016 0)"/>
      <use xlink:href="#Arial-BoldMT-20" transform="translate(377.832031 0)"/>
      <use xlink:href="#Arial-BoldMT-6f" transform="translate(405.615234 0)"/>
      <use xlink:href="#Arial-BoldMT-66" transform="translate(466.699219 0)"/>
      <use xlink:href="#Arial-BoldMT-20" transform="translate(500 0)"/>
      <use xlink:href="#Arial-BoldMT-50" transform="translate(527.783203 0)"/>
      <use xlink:href="#Arial-BoldMT-61" transform="translate(594.482422 0)"/>
      <use xlink:href="#Arial-BoldMT-72" transform="translate(650.097656 0)"/>
      <use xlink:href="#Arial-BoldMT-74" transform="translate(689.013672 0)"/>
      <use xlink:href="#Arial-BoldMT-69" transform="translate(722.314453 0)"/>
      <use xlink:href="#Arial-BoldMT-74" transform="translate(750.097656 0)"/>
      <use xlink:href="#Arial-BoldMT-69" transform="translate(783.398438 0)"/>
      <use xlink:href="#Arial-BoldMT-6f" transform="translate(811.181641 0)"/>
      <use xlink:href="#Arial-BoldMT-6e" transform="translate(872.265625 0)"/>
      <use xlink:href="#Arial-BoldMT-73" transform="translate(933.349609 0)"/>
     </g>
    </g>
   </g>
   <g id="matplotlib.axis_2">
    <g id="ytick_1">
     <g id="line2d_11">
      <path d="M 70.914844 314.641468 
L 705.609844 314.641468 
" clip-path="url(#p62f78287e5)" style="fill: none; stroke: #cccccc; stroke-opacity: 0.3; stroke-width: 0.8; stroke-linecap: round"/>
     </g>
     <g id="line2d_12"/>
     <g id="text_7">
      <!-- −0.10 -->
      <g style="fill: #262626" transform="translate(29.4625 320.009827) scale(0.15 -0.15)">
       <defs>
        <path id="ArialMT-2212" d="M 3381 1997 
L 356 1997 
L 356 2522 
L 3381 2522 
L 3381 1997 
z
" transform="scale(0.015625)"/>
        <path id="ArialMT-30" d="M 266 2259 
Q 266 3072 433 3567 
Q 600 4063 929 4331 
Q 1259 4600 1759 4600 
Q 2128 4600 2406 4451 
Q 2684 4303 2865 4023 
Q 3047 3744 3150 3342 
Q 3253 2941 3253 2259 
Q 3253 1453 3087 958 
Q 2922 463 2592 192 
Q 2263 -78 1759 -78 
Q 1097 -78 719 397 
Q 266 969 266 2259 
z
M 844 2259 
Q 844 1131 1108 757 
Q 1372 384 1759 384 
Q 2147 384 2411 759 
Q 2675 1134 2675 2259 
Q 2675 3391 2411 3762 
Q 2147 4134 1753 4134 
Q 1366 4134 1134 3806 
Q 844 3388 844 2259 
z
" transform="scale(0.015625)"/>
        <path id="ArialMT-2e" d="M 581 0 
L 581 641 
L 1222 641 
L 1222 0 
L 581 0 
z
" transform="scale(0.015625)"/>
        <path id="ArialMT-31" d="M 2384 0 
L 1822 0 
L 1822 3584 
Q 1619 3391 1289 3197 
Q 959 3003 697 2906 
L 697 3450 
Q 1169 3672 1522 3987 
Q 1875 4303 2022 4600 
L 2384 4600 
L 2384 0 
z
" transform="scale(0.015625)"/>
       </defs>
       <use xlink:href="#ArialMT-2212"/>
       <use xlink:href="#ArialMT-30" transform="translate(58.398438 0)"/>
       <use xlink:href="#ArialMT-2e" transform="translate(114.013672 0)"/>
       <use xlink:href="#ArialMT-31" transform="translate(141.796875 0)"/>
       <use xlink:href="#ArialMT-30" transform="translate(197.412109 0)"/>
      </g>
     </g>
    </g>
    <g id="ytick_2">
     <g id="line2d_13">
      <path d="M 70.914844 242.390755 
L 705.609844 242.390755 
" clip-path="url(#p62f78287e5)" style="fill: none; stroke: #cccccc; stroke-opacity: 0.3; stroke-width: 0.8; stroke-linecap: round"/>
     </g>
     <g id="line2d_14"/>
     <g id="text_8">
      <!-- −0.05 -->
      <g style="fill: #262626" transform="translate(29.4625 247.759115) scale(0.15 -0.15)">
       <use xlink:href="#ArialMT-2212"/>
       <use xlink:href="#ArialMT-30" transform="translate(58.398438 0)"/>
       <use xlink:href="#ArialMT-2e" transform="translate(114.013672 0)"/>
       <use xlink:href="#ArialMT-30" transform="translate(141.796875 0)"/>
       <use xlink:href="#ArialMT-35" transform="translate(197.412109 0)"/>
      </g>
     </g>
    </g>
    <g id="ytick_3">
     <g id="line2d_15">
      <path d="M 70.914844 170.140043 
L 705.609844 170.140043 
" clip-path="url(#p62f78287e5)" style="fill: none; stroke: #cccccc; stroke-opacity: 0.3; stroke-width: 0.8; stroke-linecap: round"/>
     </g>
     <g id="line2d_16"/>
     <g id="text_9">
      <!-- 0.00 -->
      <g style="fill: #262626" transform="translate(38.223438 175.508402) scale(0.15 -0.15)">
       <use xlink:href="#ArialMT-30"/>
       <use xlink:href="#ArialMT-2e" transform="translate(55.615234 0)"/>
       <use xlink:href="#ArialMT-30" transform="translate(83.398438 0)"/>
       <use xlink:href="#ArialMT-30" transform="translate(139.013672 0)"/>
      </g>
     </g>
    </g>
    <g id="ytick_4">
     <g id="line2d_17">
      <path d="M 70.914844 97.889331 
L 705.609844 97.889331 
" clip-path="url(#p62f78287e5)" style="fill: none; stroke: #cccccc; stroke-opacity: 0.3; stroke-width: 0.8; stroke-linecap: round"/>
     </g>
     <g id="line2d_18"/>
     <g id="text_10">
      <!-- 0.05 -->
      <g style="fill: #262626" transform="translate(38.223438 103.25769) scale(0.15 -0.15)">
       <use xlink:href="#ArialMT-30"/>
       <use xlink:href="#ArialMT-2e" transform="translate(55.615234 0)"/>
       <use xlink:href="#ArialMT-30" transform="translate(83.398438 0)"/>
       <use xlink:href="#ArialMT-35" transform="translate(139.013672 0)"/>
      </g>
     </g>
    </g>
    <g id="ytick_5">
     <g id="line2d_19">
      <path d="M 70.914844 25.638618 
L 705.609844 25.638618 
" clip-path="url(#p62f78287e5)" style="fill: none; stroke: #cccccc; stroke-opacity: 0.3; stroke-width: 0.8; stroke-linecap: round"/>
     </g>
     <g id="line2d_20"/>
     <g id="text_11">
      <!-- 0.10 -->
      <g style="fill: #262626" transform="translate(38.223438 31.006978) scale(0.15 -0.15)">
       <use xlink:href="#ArialMT-30"/>
       <use xlink:href="#ArialMT-2e" transform="translate(55.615234 0)"/>
       <use xlink:href="#ArialMT-31" transform="translate(83.398438 0)"/>
       <use xlink:href="#ArialMT-30" transform="translate(139.013672 0)"/>
      </g>
     </g>
    </g>
    <g id="text_12">
     <!-- Error Reduction -->
     <g style="fill: #262626" transform="translate(21.515625 268.745625) rotate(-90) scale(0.2 -0.2)">
      <defs>
       <path id="Arial-BoldMT-45" d="M 466 0 
L 466 4581 
L 3863 4581 
L 3863 3806 
L 1391 3806 
L 1391 2791 
L 3691 2791 
L 3691 2019 
L 1391 2019 
L 1391 772 
L 3950 772 
L 3950 0 
L 466 0 
z
" transform="scale(0.015625)"/>
       <path id="Arial-BoldMT-52" d="M 469 0 
L 469 4581 
L 2416 4581 
Q 3150 4581 3483 4457 
Q 3816 4334 4016 4018 
Q 4216 3703 4216 3297 
Q 4216 2781 3912 2445 
Q 3609 2109 3006 2022 
Q 3306 1847 3501 1637 
Q 3697 1428 4028 894 
L 4588 0 
L 3481 0 
L 2813 997 
Q 2456 1531 2325 1670 
Q 2194 1809 2047 1861 
Q 1900 1913 1581 1913 
L 1394 1913 
L 1394 0 
L 469 0 
z
M 1394 2644 
L 2078 2644 
Q 2744 2644 2909 2700 
Q 3075 2756 3169 2893 
Q 3263 3031 3263 3238 
Q 3263 3469 3139 3611 
Q 3016 3753 2791 3791 
Q 2678 3806 2116 3806 
L 1394 3806 
L 1394 2644 
z
" transform="scale(0.015625)"/>
       <path id="Arial-BoldMT-64" d="M 3503 0 
L 2688 0 
L 2688 488 
Q 2484 203 2207 64 
Q 1931 -75 1650 -75 
Q 1078 -75 670 386 
Q 263 847 263 1672 
Q 263 2516 659 2955 
Q 1056 3394 1663 3394 
Q 2219 3394 2625 2931 
L 2625 4581 
L 3503 4581 
L 3503 0 
z
M 1159 1731 
Q 1159 1200 1306 963 
Q 1519 619 1900 619 
Q 2203 619 2415 876 
Q 2628 1134 2628 1647 
Q 2628 2219 2422 2470 
Q 2216 2722 1894 2722 
Q 1581 2722 1370 2473 
Q 1159 2225 1159 1731 
z
" transform="scale(0.015625)"/>
       <path id="Arial-BoldMT-63" d="M 3353 2338 
L 2488 2181 
Q 2444 2441 2289 2572 
Q 2134 2703 1888 2703 
Q 1559 2703 1364 2476 
Q 1169 2250 1169 1719 
Q 1169 1128 1367 884 
Q 1566 641 1900 641 
Q 2150 641 2309 783 
Q 2469 925 2534 1272 
L 3397 1125 
Q 3263 531 2881 228 
Q 2500 -75 1859 -75 
Q 1131 -75 698 384 
Q 266 844 266 1656 
Q 266 2478 700 2936 
Q 1134 3394 1875 3394 
Q 2481 3394 2839 3133 
Q 3197 2872 3353 2338 
z
" transform="scale(0.015625)"/>
      </defs>
      <use xlink:href="#Arial-BoldMT-45"/>
      <use xlink:href="#Arial-BoldMT-72" transform="translate(66.699219 0)"/>
      <use xlink:href="#Arial-BoldMT-72" transform="translate(105.615234 0)"/>
      <use xlink:href="#Arial-BoldMT-6f" transform="translate(144.53125 0)"/>
      <use xlink:href="#Arial-BoldMT-72" transform="translate(205.615234 0)"/>
      <use xlink:href="#Arial-BoldMT-20" transform="translate(244.53125 0)"/>
      <use xlink:href="#Arial-BoldMT-52" transform="translate(272.314453 0)"/>
      <use xlink:href="#Arial-BoldMT-65" transform="translate(344.53125 0)"/>
      <use xlink:href="#Arial-BoldMT-64" transform="translate(400.146484 0)"/>
      <use xlink:href="#Arial-BoldMT-75" transform="translate(461.230469 0)"/>
      <use xlink:href="#Arial-BoldMT-63" transform="translate(522.314453 0)"/>
      <use xlink:href="#Arial-BoldMT-74" transform="translate(577.929688 0)"/>
      <use xlink:href="#Arial-BoldMT-69" transform="translate(611.230469 0)"/>
      <use xlink:href="#Arial-BoldMT-6f" transform="translate(639.013672 0)"/>
      <use xlink:href="#Arial-BoldMT-6e" transform="translate(700.097656 0)"/>
     </g>
    </g>
   </g>
   <g id="patch_3">
    <path d="M 99.764616 170.140043 
L 131.81992 170.140043 
L 131.81992 109.605693 
L 99.764616 109.605693 
z
" clip-path="url(#p62f78287e5)" style="fill: #f77189; opacity: 0.8"/>
   </g>
   <g id="patch_4">
    <path d="M 219.972003 170.140043 
L 252.027306 170.140043 
L 252.027306 290.64152 
L 219.972003 290.64152 
z
" clip-path="url(#p62f78287e5)" style="fill: #f77189; opacity: 0.8"/>
   </g>
   <g id="patch_5">
    <path d="M 340.179389 170.140043 
L 372.234692 170.140043 
L 372.234692 102.837277 
L 340.179389 102.837277 
z
" clip-path="url(#p62f78287e5)" style="fill: #f77189; opacity: 0.8"/>
   </g>
   <g id="patch_6">
    <path d="M 460.386776 170.140043 
L 492.442079 170.140043 
L 492.442079 226.423962 
L 460.386776 226.423962 
z
" clip-path="url(#p62f78287e5)" style="fill: #f77189; opacity: 0.8"/>
   </g>
   <g id="patch_7">
    <path d="M 580.594162 170.140043 
L 612.649465 170.140043 
L 612.649465 115.474287 
L 580.594162 115.474287 
z
" clip-path="url(#p62f78287e5)" style="fill: #f77189; opacity: 0.8"/>
   </g>
   <g id="patch_8">
    <path d="M 131.81992 170.140043 
L 163.875223 170.140043 
L 163.875223 148.355694 
L 131.81992 148.355694 
z
" clip-path="url(#p62f78287e5)" style="fill: #bb9832; opacity: 0.8"/>
   </g>
   <g id="patch_9">
    <path d="M 252.027306 170.140043 
L 284.082609 170.140043 
L 284.082609 225.133142 
L 252.027306 225.133142 
z
" clip-path="url(#p62f78287e5)" style="fill: #bb9832; opacity: 0.8"/>
   </g>
   <g id="patch_10">
    <path d="M 372.234692 170.140043 
L 404.289995 170.140043 
L 404.289995 149.323433 
L 372.234692 149.323433 
z
" clip-path="url(#p62f78287e5)" style="fill: #bb9832; opacity: 0.8"/>
   </g>
   <g id="patch_11">
    <path d="M 492.442079 170.140043 
L 524.497382 170.140043 
L 524.497382 280.858777 
L 492.442079 280.858777 
z
" clip-path="url(#p62f78287e5)" style="fill: #bb9832; opacity: 0.8"/>
   </g>
   <g id="patch_12">
    <path d="M 612.649465 170.140043 
L 644.704768 170.140043 
L 644.704768 150.767936 
L 612.649465 150.767936 
z
" clip-path="url(#p62f78287e5)" style="fill: #bb9832; opacity: 0.8"/>
   </g>
   <g id="patch_13">
    <path d="M 163.875223 170.140043 
L 195.930526 170.140043 
L 195.930526 181.889555 
L 163.875223 181.889555 
z
" clip-path="url(#p62f78287e5)" style="fill: #50b131; opacity: 0.8"/>
   </g>
   <g id="patch_14">
    <path d="M 284.082609 170.140043 
L 316.137912 170.140043 
L 316.137912 175.757829 
L 284.082609 175.757829 
z
" clip-path="url(#p62f78287e5)" style="fill: #50b131; opacity: 0.8"/>
   </g>
   <g id="patch_15">
    <path d="M 404.289995 170.140043 
L 436.345298 170.140043 
L 436.345298 186.398563 
L 404.289995 186.398563 
z
" clip-path="url(#p62f78287e5)" style="fill: #50b131; opacity: 0.8"/>
   </g>
   <g id="patch_16">
    <path d="M 524.497382 170.140043 
L 556.552685 170.140043 
L 556.552685 152.109677 
L 524.497382 152.109677 
z
" clip-path="url(#p62f78287e5)" style="fill: #50b131; opacity: 0.8"/>
   </g>
   <g id="patch_17">
    <path d="M 644.704768 170.140043 
L 676.760071 170.140043 
L 676.760071 198.335374 
L 644.704768 198.335374 
z
" clip-path="url(#p62f78287e5)" style="fill: #50b131; opacity: 0.8"/>
   </g>
   <g id="LineCollection_1">
    <path d="M 115.792268 169.788482 
L 115.792268 49.422904 
" clip-path="url(#p62f78287e5)" style="fill: none; stroke: #000000; stroke-width: 1.5"/>
    <path d="M 235.999654 361.202727 
L 235.999654 220.080313 
" clip-path="url(#p62f78287e5)" style="fill: none; stroke: #000000; stroke-width: 1.5"/>
    <path d="M 356.207041 181.61728 
L 356.207041 24.057273 
" clip-path="url(#p62f78287e5)" style="fill: none; stroke: #000000; stroke-width: 1.5"/>
    <path d="M 476.414427 308.882926 
L 476.414427 143.964999 
" clip-path="url(#p62f78287e5)" style="fill: none; stroke: #000000; stroke-width: 1.5"/>
    <path d="M 596.621813 206.393333 
L 596.621813 24.555242 
" clip-path="url(#p62f78287e5)" style="fill: none; stroke: #000000; stroke-width: 1.5"/>
   </g>
   <g id="line2d_21">
    <defs>
     <path id="md9ea4a1999" d="M 4 0 
L -4 -0 
" style="stroke: #000000"/>
    </defs>
    <g clip-path="url(#p62f78287e5)">
     <use xlink:href="#md9ea4a1999" x="115.792268" y="169.788482" style="fill: #f77189; stroke: #000000"/>
     <use xlink:href="#md9ea4a1999" x="235.999654" y="361.202727" style="fill: #f77189; stroke: #000000"/>
     <use xlink:href="#md9ea4a1999" x="356.207041" y="181.61728" style="fill: #f77189; stroke: #000000"/>
     <use xlink:href="#md9ea4a1999" x="476.414427" y="308.882926" style="fill: #f77189; stroke: #000000"/>
     <use xlink:href="#md9ea4a1999" x="596.621813" y="206.393333" style="fill: #f77189; stroke: #000000"/>
    </g>
   </g>
   <g id="line2d_22">
    <g clip-path="url(#p62f78287e5)">
     <use xlink:href="#md9ea4a1999" x="115.792268" y="49.422904" style="fill: #f77189; stroke: #000000"/>
     <use xlink:href="#md9ea4a1999" x="235.999654" y="220.080313" style="fill: #f77189; stroke: #000000"/>
     <use xlink:href="#md9ea4a1999" x="356.207041" y="24.057273" style="fill: #f77189; stroke: #000000"/>
     <use xlink:href="#md9ea4a1999" x="476.414427" y="143.964999" style="fill: #f77189; stroke: #000000"/>
     <use xlink:href="#md9ea4a1999" x="596.621813" y="24.555242" style="fill: #f77189; stroke: #000000"/>
    </g>
   </g>
   <g id="LineCollection_2">
    <path d="M 147.847571 195.182226 
L 147.847571 101.529163 
" clip-path="url(#p62f78287e5)" style="fill: none; stroke: #000000; stroke-width: 1.5"/>
    <path d="M 268.054957 288.651101 
L 268.054957 161.615183 
" clip-path="url(#p62f78287e5)" style="fill: none; stroke: #000000; stroke-width: 1.5"/>
    <path d="M 388.262344 210.742736 
L 388.262344 87.90413 
" clip-path="url(#p62f78287e5)" style="fill: none; stroke: #000000; stroke-width: 1.5"/>
    <path d="M 508.46973 352.131439 
L 508.46973 209.586116 
" clip-path="url(#p62f78287e5)" style="fill: none; stroke: #000000; stroke-width: 1.5"/>
    <path d="M 628.677116 218.499273 
L 628.677116 83.036599 
" clip-path="url(#p62f78287e5)" style="fill: none; stroke: #000000; stroke-width: 1.5"/>
   </g>
   <g id="line2d_23">
    <g clip-path="url(#p62f78287e5)">
     <use xlink:href="#md9ea4a1999" x="147.847571" y="195.182226" style="fill: #f77189; stroke: #000000"/>
     <use xlink:href="#md9ea4a1999" x="268.054957" y="288.651101" style="fill: #f77189; stroke: #000000"/>
     <use xlink:href="#md9ea4a1999" x="388.262344" y="210.742736" style="fill: #f77189; stroke: #000000"/>
     <use xlink:href="#md9ea4a1999" x="508.46973" y="352.131439" style="fill: #f77189; stroke: #000000"/>
     <use xlink:href="#md9ea4a1999" x="628.677116" y="218.499273" style="fill: #f77189; stroke: #000000"/>
    </g>
   </g>
   <g id="line2d_24">
    <g clip-path="url(#p62f78287e5)">
     <use xlink:href="#md9ea4a1999" x="147.847571" y="101.529163" style="fill: #f77189; stroke: #000000"/>
     <use xlink:href="#md9ea4a1999" x="268.054957" y="161.615183" style="fill: #f77189; stroke: #000000"/>
     <use xlink:href="#md9ea4a1999" x="388.262344" y="87.90413" style="fill: #f77189; stroke: #000000"/>
     <use xlink:href="#md9ea4a1999" x="508.46973" y="209.586116" style="fill: #f77189; stroke: #000000"/>
     <use xlink:href="#md9ea4a1999" x="628.677116" y="83.036599" style="fill: #f77189; stroke: #000000"/>
    </g>
   </g>
   <g id="LineCollection_3">
    <path d="M 179.902874 194.542548 
L 179.902874 169.236562 
" clip-path="url(#p62f78287e5)" style="fill: none; stroke: #000000; stroke-width: 1.5"/>
    <path d="M 300.11026 188.504093 
L 300.11026 163.011565 
" clip-path="url(#p62f78287e5)" style="fill: none; stroke: #000000; stroke-width: 1.5"/>
    <path d="M 420.317647 203.182248 
L 420.317647 169.614878 
" clip-path="url(#p62f78287e5)" style="fill: none; stroke: #000000; stroke-width: 1.5"/>
    <path d="M 540.525033 167.574625 
L 540.525033 136.644729 
" clip-path="url(#p62f78287e5)" style="fill: none; stroke: #000000; stroke-width: 1.5"/>
    <path d="M 660.73242 218.267704 
L 660.73242 178.403045 
" clip-path="url(#p62f78287e5)" style="fill: none; stroke: #000000; stroke-width: 1.5"/>
   </g>
   <g id="line2d_25">
    <g clip-path="url(#p62f78287e5)">
     <use xlink:href="#md9ea4a1999" x="179.902874" y="194.542548" style="fill: #f77189; stroke: #000000"/>
     <use xlink:href="#md9ea4a1999" x="300.11026" y="188.504093" style="fill: #f77189; stroke: #000000"/>
     <use xlink:href="#md9ea4a1999" x="420.317647" y="203.182248" style="fill: #f77189; stroke: #000000"/>
     <use xlink:href="#md9ea4a1999" x="540.525033" y="167.574625" style="fill: #f77189; stroke: #000000"/>
     <use xlink:href="#md9ea4a1999" x="660.73242" y="218.267704" style="fill: #f77189; stroke: #000000"/>
    </g>
   </g>
   <g id="line2d_26">
    <g clip-path="url(#p62f78287e5)">
     <use xlink:href="#md9ea4a1999" x="179.902874" y="169.236562" style="fill: #f77189; stroke: #000000"/>
     <use xlink:href="#md9ea4a1999" x="300.11026" y="163.011565" style="fill: #f77189; stroke: #000000"/>
     <use xlink:href="#md9ea4a1999" x="420.317647" y="169.614878" style="fill: #f77189; stroke: #000000"/>
     <use xlink:href="#md9ea4a1999" x="540.525033" y="136.644729" style="fill: #f77189; stroke: #000000"/>
     <use xlink:href="#md9ea4a1999" x="660.73242" y="178.403045" style="fill: #f77189; stroke: #000000"/>
    </g>
   </g>
   <g id="line2d_27">
    <path d="M 70.914844 170.140043 
L 705.609844 170.140043 
" clip-path="url(#p62f78287e5)" style="fill: none; stroke-dasharray: 5.55,2.4; stroke-dashoffset: 0; stroke: #ff0000; stroke-opacity: 0.5; stroke-width: 1.5"/>
   </g>
   <g id="patch_18">
    <path d="M 70.914844 378.06 
L 70.914844 7.2 
" style="fill: none; stroke: #cccccc; stroke-linejoin: miter; stroke-linecap: square"/>
   </g>
   <g id="patch_19">
    <path d="M 705.609844 378.06 
L 705.609844 7.2 
" style="fill: none; stroke: #cccccc; stroke-linejoin: miter; stroke-linecap: square"/>
   </g>
   <g id="patch_20">
    <path d="M 70.914844 378.06 
L 705.609844 378.06 
" style="fill: none; stroke: #cccccc; stroke-linejoin: miter; stroke-linecap: square"/>
   </g>
   <g id="patch_21">
    <path d="M 70.914844 7.2 
L 705.609844 7.2 
" style="fill: none; stroke: #cccccc; stroke-linejoin: miter; stroke-linecap: square"/>
   </g>
   <g id="legend_1">
    <g id="patch_22">
     <path d="M 83.414844 372.56 
L 191.700781 372.56 
Q 194.700781 372.56 194.700781 369.56 
L 194.700781 307.406094 
Q 194.700781 304.406094 191.700781 304.406094 
L 83.414844 304.406094 
Q 80.414844 304.406094 80.414844 307.406094 
L 80.414844 369.56 
Q 80.414844 372.56 83.414844 372.56 
z
" style="fill: #4d4d4d; opacity: 0.5; stroke: #4d4d4d; stroke-linejoin: miter"/>
    </g>
    <g id="patch_23">
     <path d="M 81.414844 370.56 
L 189.700781 370.56 
Q 192.700781 370.56 192.700781 367.56 
L 192.700781 305.406094 
Q 192.700781 302.406094 189.700781 302.406094 
L 81.414844 302.406094 
Q 78.414844 302.406094 78.414844 305.406094 
L 78.414844 367.56 
Q 78.414844 370.56 81.414844 370.56 
z
" style="fill: #ffffff; stroke: #cccccc; stroke-linejoin: miter"/>
    </g>
    <g id="patch_24">
     <path d="M 84.414844 319.142812 
L 114.414844 319.142812 
L 114.414844 308.642812 
L 84.414844 308.642812 
z
" style="fill: #f77189; opacity: 0.8"/>
    </g>
    <g id="text_13">
     <!-- DJ -->
     <g style="fill: #262626" transform="translate(126.414844 319.142812) scale(0.15 -0.15)">
      <defs>
       <path id="ArialMT-44" d="M 494 0 
L 494 4581 
L 2072 4581 
Q 2606 4581 2888 4516 
Q 3281 4425 3559 4188 
Q 3922 3881 4101 3404 
Q 4281 2928 4281 2316 
Q 4281 1794 4159 1391 
Q 4038 988 3847 723 
Q 3656 459 3429 307 
Q 3203 156 2883 78 
Q 2563 0 2147 0 
L 494 0 
z
M 1100 541 
L 2078 541 
Q 2531 541 2789 625 
Q 3047 709 3200 863 
Q 3416 1078 3536 1442 
Q 3656 1806 3656 2325 
Q 3656 3044 3420 3430 
Q 3184 3816 2847 3947 
Q 2603 4041 2063 4041 
L 1100 4041 
L 1100 541 
z
" transform="scale(0.015625)"/>
       <path id="ArialMT-4a" d="M 184 1300 
L 731 1375 
Q 753 850 928 656 
Q 1103 463 1413 463 
Q 1641 463 1806 567 
Q 1972 672 2034 851 
Q 2097 1031 2097 1425 
L 2097 4581 
L 2703 4581 
L 2703 1459 
Q 2703 884 2564 568 
Q 2425 253 2123 87 
Q 1822 -78 1416 -78 
Q 813 -78 492 269 
Q 172 616 184 1300 
z
" transform="scale(0.015625)"/>
      </defs>
      <use xlink:href="#ArialMT-44"/>
      <use xlink:href="#ArialMT-4a" transform="translate(72.216797 0)"/>
     </g>
    </g>
    <g id="patch_25">
     <path d="M 84.414844 340.360781 
L 114.414844 340.360781 
L 114.414844 329.860781 
L 84.414844 329.860781 
z
" style="fill: #bb9832; opacity: 0.8"/>
    </g>
    <g id="text_14">
     <!-- GHZ -->
     <g style="fill: #262626" transform="translate(126.414844 340.360781) scale(0.15 -0.15)">
      <defs>
       <path id="ArialMT-47" d="M 2638 1797 
L 2638 2334 
L 4578 2338 
L 4578 638 
Q 4131 281 3656 101 
Q 3181 -78 2681 -78 
Q 2006 -78 1454 211 
Q 903 500 622 1047 
Q 341 1594 341 2269 
Q 341 2938 620 3517 
Q 900 4097 1425 4378 
Q 1950 4659 2634 4659 
Q 3131 4659 3532 4498 
Q 3934 4338 4162 4050 
Q 4391 3763 4509 3300 
L 3963 3150 
Q 3859 3500 3706 3700 
Q 3553 3900 3268 4020 
Q 2984 4141 2638 4141 
Q 2222 4141 1919 4014 
Q 1616 3888 1430 3681 
Q 1244 3475 1141 3228 
Q 966 2803 966 2306 
Q 966 1694 1177 1281 
Q 1388 869 1791 669 
Q 2194 469 2647 469 
Q 3041 469 3416 620 
Q 3791 772 3984 944 
L 3984 1797 
L 2638 1797 
z
" transform="scale(0.015625)"/>
       <path id="ArialMT-48" d="M 513 0 
L 513 4581 
L 1119 4581 
L 1119 2700 
L 3500 2700 
L 3500 4581 
L 4106 4581 
L 4106 0 
L 3500 0 
L 3500 2159 
L 1119 2159 
L 1119 0 
L 513 0 
z
" transform="scale(0.015625)"/>
       <path id="ArialMT-5a" d="M 128 0 
L 128 563 
L 2475 3497 
Q 2725 3809 2950 4041 
L 394 4041 
L 394 4581 
L 3675 4581 
L 3675 4041 
L 1103 863 
L 825 541 
L 3750 541 
L 3750 0 
L 128 0 
z
" transform="scale(0.015625)"/>
      </defs>
      <use xlink:href="#ArialMT-47"/>
      <use xlink:href="#ArialMT-48" transform="translate(77.783203 0)"/>
      <use xlink:href="#ArialMT-5a" transform="translate(150 0)"/>
     </g>
    </g>
    <g id="patch_26">
     <path d="M 84.414844 361.57875 
L 114.414844 361.57875 
L 114.414844 351.07875 
L 84.414844 351.07875 
z
" style="fill: #50b131; opacity: 0.8"/>
    </g>
    <g id="text_15">
     <!-- WSTATE -->
     <g style="fill: #262626" transform="translate(126.414844 361.57875) scale(0.15 -0.15)">
      <defs>
       <path id="ArialMT-57" d="M 1294 0 
L 78 4581 
L 700 4581 
L 1397 1578 
Q 1509 1106 1591 641 
Q 1766 1375 1797 1488 
L 2669 4581 
L 3400 4581 
L 4056 2263 
Q 4303 1400 4413 641 
Q 4500 1075 4641 1638 
L 5359 4581 
L 5969 4581 
L 4713 0 
L 4128 0 
L 3163 3491 
Q 3041 3928 3019 4028 
Q 2947 3713 2884 3491 
L 1913 0 
L 1294 0 
z
" transform="scale(0.015625)"/>
       <path id="ArialMT-53" d="M 288 1472 
L 859 1522 
Q 900 1178 1048 958 
Q 1197 738 1509 602 
Q 1822 466 2213 466 
Q 2559 466 2825 569 
Q 3091 672 3220 851 
Q 3350 1031 3350 1244 
Q 3350 1459 3225 1620 
Q 3100 1781 2813 1891 
Q 2628 1963 1997 2114 
Q 1366 2266 1113 2400 
Q 784 2572 623 2826 
Q 463 3081 463 3397 
Q 463 3744 659 4045 
Q 856 4347 1234 4503 
Q 1613 4659 2075 4659 
Q 2584 4659 2973 4495 
Q 3363 4331 3572 4012 
Q 3781 3694 3797 3291 
L 3216 3247 
Q 3169 3681 2898 3903 
Q 2628 4125 2100 4125 
Q 1550 4125 1298 3923 
Q 1047 3722 1047 3438 
Q 1047 3191 1225 3031 
Q 1400 2872 2139 2705 
Q 2878 2538 3153 2413 
Q 3553 2228 3743 1945 
Q 3934 1663 3934 1294 
Q 3934 928 3725 604 
Q 3516 281 3123 101 
Q 2731 -78 2241 -78 
Q 1619 -78 1198 103 
Q 778 284 539 648 
Q 300 1013 288 1472 
z
" transform="scale(0.015625)"/>
       <path id="ArialMT-54" d="M 1659 0 
L 1659 4041 
L 150 4041 
L 150 4581 
L 3781 4581 
L 3781 4041 
L 2266 4041 
L 2266 0 
L 1659 0 
z
" transform="scale(0.015625)"/>
       <path id="ArialMT-41" d="M -9 0 
L 1750 4581 
L 2403 4581 
L 4278 0 
L 3588 0 
L 3053 1388 
L 1138 1388 
L 634 0 
L -9 0 
z
M 1313 1881 
L 2866 1881 
L 2388 3150 
Q 2169 3728 2063 4100 
Q 1975 3659 1816 3225 
L 1313 1881 
z
" transform="scale(0.015625)"/>
       <path id="ArialMT-45" d="M 506 0 
L 506 4581 
L 3819 4581 
L 3819 4041 
L 1113 4041 
L 1113 2638 
L 3647 2638 
L 3647 2100 
L 1113 2100 
L 1113 541 
L 3925 541 
L 3925 0 
L 506 0 
z
" transform="scale(0.015625)"/>
      </defs>
      <use xlink:href="#ArialMT-57"/>
      <use xlink:href="#ArialMT-53" transform="translate(94.384766 0)"/>
      <use xlink:href="#ArialMT-54" transform="translate(161.083984 0)"/>
      <use xlink:href="#ArialMT-41" transform="translate(214.792969 0)"/>
      <use xlink:href="#ArialMT-54" transform="translate(274.117188 0)"/>
      <use xlink:href="#ArialMT-45" transform="translate(335.201172 0)"/>
     </g>
    </g>
   </g>
  </g>
 </g>
 <defs>
  <clipPath id="p62f78287e5">
   <rect x="70.914844" y="7.2" width="634.695" height="370.86"/>
  </clipPath>
 </defs>
</svg>
